
<svg version="1.1" id="Layer_2_1_" xmlns="http://www.w3.org/2000/svg" xmlns:xlink="http://www.w3.org/1999/xlink" x="0px" y="0px"
 width="320px" height="320px" viewBox="0 0 320 320" enable-background="new 0 0 320 320" xml:space="preserve" fill="rgba(0,0,0,0.16)">
<g>
<g>
<defs>
<rect id="SVGID_30_" width="320" height="320"/>
</defs>
<clipPath id="SVGID_3_">
<use xlink:href="#SVGID_30_"  overflow="visible"/>
</clipPath>
<g clip-path="url(#SVGID_3_)">
<path fill="rgba(0,0,0,0.16)" d="M296.705,246.702c-1.457,0-3.369-0.646-5.584-1.394c-2.773-0.936-5.916-1.998-8.866-1.998
c-0.716,0-1.399,0.064-2.032,0.191c-1.9,0.38-3.856,0.573-5.813,0.573c-6.871,0-12.267-2.355-14.803-6.462
c-3.558-5.762-10.842-8.98-15.888-9.083c-4.137-0.084-7.141-1.797-7.307-4.164c-0.083-1.192,0.458-2.258,0.98-3.29l0.036-0.072
c1.178-2.327,4.318-6.613,12.121-9.171c4.281-1.404,7.993-2.116,11.033-2.116c6.229,0,9.662,2.917,10.205,8.672
c0.85,9.011,7.81,16.07,15.844,16.07c0.288,0,0.58-0.009,0.869-0.027c0.279-0.018,0.56-0.026,0.836-0.026
c5.223,0,8.706,3.029,10.223,5.863c1.092,2.04,1.228,4.121,0.356,5.429C298.463,246.374,297.741,246.702,296.705,246.702
L296.705,246.702z M282.255,242.671c3.055,0,6.251,1.079,9.07,2.032c2.162,0.73,4.028,1.36,5.38,1.36h0.001
c0.816,0,1.348-0.228,1.675-0.719c0.741-1.112,0.593-2.941-0.387-4.773c-1.43-2.671-4.717-5.525-9.658-5.525
c-0.262,0-0.53,0.008-0.796,0.025c-0.302,0.019-0.607,0.028-0.909,0.028c-8.361,0-15.6-7.314-16.481-16.65
c-0.507-5.369-3.726-8.092-9.568-8.092c-2.972,0-6.617,0.701-10.833,2.084c-7.583,2.486-10.616,6.613-11.749,8.851l-0.037,0.072
c-0.483,0.954-0.983,1.941-0.912,2.957c0.142,2.024,2.889,3.492,6.681,3.569c5.215,0.106,12.742,3.432,16.419,9.386
c2.417,3.914,7.615,6.158,14.259,6.158c1.915,0,3.829-0.188,5.688-0.56C280.772,242.739,281.497,242.671,282.255,242.671z"/>
</g>
<g clip-path="url(#SVGID_3_)">
<path fill="rgba(0,0,0,0.16)" d="M260.568,226.973c-0.994,0-2.01-0.364-2.992-0.716c-1.005-0.359-2.044-0.731-3.075-0.731
c-0.171,0-0.341,0.01-0.504,0.031c-1.061,0.133-2.19,0.256-3.26,0.256c-1.831,0-2.946-0.372-3.409-1.136
c-0.371-0.613-0.289-1.44,0.243-2.457l0.022-0.036c0.157-0.222,3.899-5.43,9.589-5.43c0.434,0,0.874,0.031,1.308,0.093
c2.952,0.422,4.977,2.284,5.415,4.982c0.335,2.062-0.408,4.115-1.727,4.775C261.677,226.851,261.152,226.972,260.568,226.973
C260.568,226.973,260.568,226.973,260.568,226.973z M254.5,224.886c1.142,0,2.235,0.391,3.291,0.769
c0.974,0.349,1.895,0.678,2.777,0.678c0.482,0,0.914-0.099,1.322-0.303c1.062-0.531,1.668-2.332,1.382-4.1
c-0.188-1.156-1.038-3.903-4.873-4.45c-0.403-0.058-0.813-0.087-1.217-0.087c-5.203,0-8.821,4.825-9.054,5.143
c-0.413,0.795-0.498,1.403-0.253,1.808c0.333,0.549,1.295,0.827,2.861,0.827c1.035,0,2.14-0.12,3.181-0.251
C254.106,224.898,254.302,224.886,254.5,224.886z"/>
</g>
<g clip-path="url(#SVGID_3_)">
<path fill="rgba(0,0,0,0.16)" d="M9.717,302.771c-0.729,4.34,0.296,7.623,1.201,10.519c0.685,2.192,1.276,4.085,0.978,6.013
c-0.528,3.423-1.74,4.605-2.809,5.648c-0.88,0.859-1.712,1.671-1.757,3.537c-0.025,1.019,0.481,2.112,1.423,3.077
c0.972,0.996,2.254,1.722,3.637,2.096h4.18c1.496-0.421,3.174-1.392,4.673-3.45c3.181-4.366,0.893-18.685-3.051-29.448
c-3.07-8.377-6.678-13.632-9.9-14.416c-0.617-0.15-1.101-0.223-1.48-0.223c-0.543,0-0.9,0.151-1.093,0.462
c-0.427,0.689,0.149,1.844,1.103,3.758C8.305,293.323,10.548,297.823,9.717,302.771z M6.263,286.924
c0.082-0.132,0.343-0.159,0.549-0.159c0.323,0,0.77,0.069,1.329,0.205c2.966,0.722,6.498,5.96,9.45,14.014
c3.888,10.608,6.192,24.655,3.135,28.85c-2.091,2.871-4.537,3.473-6.22,3.473c-1.947,0-3.976-0.839-5.294-2.189
c-0.821-0.841-1.262-1.769-1.241-2.614c0.039-1.605,0.679-2.23,1.564-3.094c1.084-1.058,2.433-2.374,2.994-6.009
c0.32-2.075-0.321-4.128-1-6.301c-0.883-2.828-1.884-6.033-1.18-10.223c0.866-5.153-1.433-9.766-2.954-12.818
C6.689,288.646,6.024,287.31,6.263,286.924z"/>
</g>
<g clip-path="url(#SVGID_3_)">
<path fill="rgba(0,0,0,0.16)" d="M327.261,206.35c-5.6-2.906-9.398-8.602-10.247-12.24c-1.112-4.763-5.162-7.147-8.735-9.251
c-0.547-0.322-1.081-0.636-1.588-0.95c-0.375-0.232-0.826-0.503-1.331-0.807c-3.625-2.178-10.372-6.232-10.575-9.039
c-0.039-0.545,0.186-1.011,0.689-1.422c0.885-0.724,1.853-1.092,2.876-1.092c2.561,0,4.702,2.288,4.738,2.326
c3.472,3.299,5.677,5.063,14.117,5.98c3.564,0.388,6.946,1.789,10.057,3.518v-0.732c-3.085-1.683-6.438-3.035-9.988-3.421
c-8.252-0.896-10.282-2.517-13.73-5.792c-0.095-0.103-2.349-2.518-5.194-2.518c-1.175,0-2.278,0.416-3.281,1.236
c-0.667,0.546-0.977,1.207-0.922,1.964c0.227,3.138,6.898,7.146,10.884,9.541c0.502,0.302,0.951,0.571,1.324,0.802
c0.512,0.317,1.049,0.633,1.601,0.958c3.463,2.038,7.387,4.348,8.437,8.845c0.849,3.639,4.739,9.858,10.87,12.856V206.35z"/>
</g>
<g clip-path="url(#SVGID_3_)">
<path fill="rgba(0,0,0,0.16)" d="M36.772,188.333c-0.63-0.126-1.31-0.19-2.024-0.19c-2.27,0-4.654,0.632-6.959,1.243
c-2.23,0.592-4.336,1.15-6.271,1.15c-1.413,0-2.581-0.307-3.57-0.937c-0.972-0.62-2.043-1.363-3.177-2.15
c-4.815-3.343-10.808-7.503-17.499-8.23c-1.774-0.193-3.259-0.419-4.533-0.688v0.647c1.27,0.265,2.735,0.489,4.464,0.677
c6.529,0.71,12.448,4.818,17.203,8.119c1.139,0.791,2.215,1.538,3.198,2.164c1.095,0.698,2.375,1.037,3.914,1.037
c2.018,0,4.163-0.569,6.435-1.172c2.265-0.601,4.607-1.222,6.794-1.222c0.671,0,1.31,0.06,1.898,0.177
c3.134,0.627,4.056,2.759,3.894,4.394c-0.153,1.542-1.311,3.201-3.493,3.201c-0.103,0-0.208-0.004-0.315-0.012
c-2.175-0.164-4.515,1.861-7.233,4.222c-3.584,3.112-8.044,6.984-13.887,7.387c-0.354,0.025-0.713,0.037-1.065,0.037
c-9.487,0-16.354-9.026-17.533-14.078c-0.649-2.781-2.302-4.748-4.275-6.325v0.836c1.699,1.448,3.089,3.226,3.651,5.635
c1.149,4.923,7.856,14.573,18.156,14.573c0.367,0,0.741-0.013,1.11-0.038c6.057-0.418,10.607-4.368,14.263-7.542
c2.609-2.266,4.844-4.208,6.767-4.067c2.674,0.196,4.297-1.796,4.492-3.764C41.381,191.366,40.098,188.998,36.772,188.333z"/>
</g>
<g clip-path="url(#SVGID_3_)">
<path fill="rgba(0,0,0,0.16)" d="M15.877,203.34c-2.041,0-8.893-0.484-11.356-6.712c-1.251-3.164-0.83-4.833-0.257-5.676
c0.463-0.681,1.187-1.056,2.038-1.056c0.645,0,1.32,0.224,1.901,0.632c0.578,0.405,0.998,0.955,1.405,1.487
c0.365,0.478,0.71,0.928,1.155,1.273c1.431,1.11,3.96,2.433,7.883,2.433c0.36,0,0.729-0.011,1.099-0.034
c0.092-0.006,0.183-0.008,0.271-0.008c1.553,0,2.709,0.888,3.016,2.317c0.331,1.544-0.409,3.591-2.465,4.517
C19.399,203.038,17.689,203.34,15.877,203.34z M6.302,190.536c-0.633,0-1.168,0.276-1.508,0.776
c-0.398,0.586-0.886,2.024,0.323,5.081c2.314,5.852,8.821,6.307,10.761,6.307c1.699,0,3.355-0.288,4.429-0.772
c1.746-0.786,2.379-2.506,2.101-3.798c-0.258-1.202-1.233-1.888-2.623-1.804c-0.383,0.023-0.765,0.035-1.138,0.035
c-4.104,0-6.766-1.396-8.276-2.567c-0.51-0.396-0.897-0.901-1.271-1.39c-0.395-0.516-0.768-1.004-1.264-1.352
C7.362,190.719,6.817,190.536,6.302,190.536z"/>
</g>
<g clip-path="url(#SVGID_3_)">
<path fill="rgba(0,0,0,0.16)" d="M38.188,216.868c-0.349,0-0.708-0.034-1.067-0.102c-2.393-0.453-3.345-1.925-3.227-3.184
c0.095-1.019,0.852-1.707,1.826-1.576l0.049,0.01l0,0c0.001,0,1.396,0.353,4.641-1.347c1.614-0.846,2.607-0.955,3.134-0.393
c0.264,0.282,0.374,0.701,0.337,1.283C43.763,213.412,41.703,216.868,38.188,216.868z M35.491,212.63
c-0.597,0-0.912,0.508-0.959,1.011c-0.091,0.97,0.711,2.118,2.708,2.496c0.32,0.061,0.639,0.091,0.948,0.091
c3.075,0,4.952-3.111,5.055-4.71c0.025-0.385-0.032-0.663-0.165-0.804c-0.29-0.31-1.134-0.125-2.37,0.523
c-2.41,1.263-3.89,1.451-4.558,1.451c-0.288,0-0.461-0.033-0.531-0.05C35.575,212.633,35.533,212.63,35.491,212.63z"/>
</g>
<g clip-path="url(#SVGID_3_)">
<path fill="rgba(0,0,0,0.16)" d="M110.216,293.19c-0.517,0-0.898-0.148-1.134-0.441c-0.255-0.316-0.318-0.781-0.187-1.381
c0.348-1.599,2.531-4.457,5.643-4.457c0.602,0,1.214,0.108,1.819,0.32c2.325,0.815,2.933,2.379,2.747,3.472
c-0.152,0.89-0.814,1.512-1.611,1.512c-0.153,0-0.309-0.023-0.463-0.068l-0.047-0.017l0,0c0,0-0.313-0.132-1.02-0.132
c-0.703,0-1.928,0.133-3.77,0.769C111.37,293.051,110.723,293.19,110.216,293.19z M114.538,287.551
c-2.73,0-4.718,2.573-5.018,3.953c-0.06,0.276-0.098,0.647,0.06,0.843c0.256,0.318,1.115,0.259,2.405-0.186
c1.546-0.533,2.884-0.804,3.979-0.804c0.756,0,1.151,0.135,1.262,0.18c0.59,0.163,1.132-0.261,1.248-0.942
c0.144-0.846-0.379-2.077-2.328-2.76C115.609,287.647,115.068,287.551,114.538,287.551z"/>
</g>
<g clip-path="url(#SVGID_3_)">
<path fill="rgba(0,0,0,0.16)" d="M150.544,194.245c-1.682,0-4.849-0.78-6.307-2.453c-0.339-0.389-0.442-0.738-0.306-1.037
c0.162-0.356,0.607-0.529,1.36-0.529c1.759,0,5.607,1.108,6.617,2.918c0.161,0.289,0.109,0.507,0.036,0.639
c-0.152,0.277-0.504,0.417-1.141,0.455C150.722,194.243,150.635,194.245,150.544,194.245z M144.514,191.021
c0,0-0.009,0.105,0.206,0.351c1.375,1.579,4.472,2.234,5.824,2.234c0.079,0,0.153-0.002,0.222-0.006
c0.387-0.023,0.543-0.085,0.598-0.116c-0.003-0.007-0.008-0.017-0.014-0.028c-0.798-1.43-4.237-2.59-6.058-2.59
C144.716,190.866,144.531,190.988,144.514,191.021L144.514,191.021z"/>
</g>
<g clip-path="url(#SVGID_3_)">
<path fill="rgba(0,0,0,0.16)" d="M279.099,94.773c-1.994,0-5.522-1.029-6.514-2.642c-0.173-0.282-0.13-0.502-0.063-0.637
c0.14-0.283,0.486-0.438,1.121-0.503c0.152-0.015,0.323-0.023,0.508-0.023c1.576,0,4.641,0.595,6.155,2.192
c0.36,0.38,0.476,0.728,0.344,1.035C280.483,94.584,279.976,94.773,279.099,94.773z M273.115,91.768
c0.004,0.007,0.009,0.017,0.015,0.027c0.863,1.405,4.164,2.337,5.968,2.337c0.722,0,0.944-0.151,0.964-0.191l0,0
c0,0,0.004-0.105-0.22-0.342c-1.376-1.451-4.221-1.992-5.691-1.992c-0.164,0-0.314,0.007-0.444,0.02
C273.322,91.667,273.168,91.735,273.115,91.768z"/>
</g>
<g clip-path="url(#SVGID_3_)">
<path fill="rgba(0,0,0,0.16)" d="M144.755,149.424c-3.873,0-8.611-1.541-14.085-4.579c-2.065-1.146-4.457-2.556-6.552-4.325
c-2.049-1.731-3.579-3.83-4.679-6.417c-0.919-2.163-2.207-3.792-3.938-4.982c-0.935-0.643-1.963-1.188-2.957-1.714
c-0.795-0.421-1.616-0.857-2.396-1.344c-2.306-1.441-4.252-3.338-5.784-5.639c-1.555-2.335-2.916-4.23-5.085-5.608
c-1.787-1.135-3.9-1.838-6.112-2.032c-0.449-0.039-0.908-0.059-1.365-0.059c-3.685,0-7.372,1.273-10.114,3.493
c-1.347,1.09-2.351,2.491-3.07,4.283c-0.186,0.465-0.353,0.954-0.514,1.427c-0.328,0.962-0.667,1.956-1.203,2.858
c-1.856,3.123-5.852,3.779-8.878,3.779c-0.742,0-1.517-0.039-2.302-0.116c-4.279-0.418-8.705-2.016-12.797-4.622
c-4.362-2.778-7.634-6.306-9.46-10.202c-1.684-3.592-1.592-7.349-1.503-10.983c0.033-1.362,0.068-2.771,0.011-4.166
c-0.121-2.979-0.429-6.347-2.56-8.602c-0.734-0.777-1.609-1.401-2.456-2.004c-1.095-0.781-2.228-1.588-3.112-2.752
c-2.021-2.661-2.485-5.542-1.24-7.706c2.156-3.75,7.523-4.478,11.441-5.01c0.498-0.068,0.977-0.132,1.428-0.2
c4.179-0.628,8.44-1.16,12.561-1.675c2.134-0.267,4.34-0.542,6.508-0.827c0.629-0.083,1.263-0.163,1.9-0.243
c3.964-0.5,8.063-1.018,11.808-2.321c2.24-0.78,4.354-1.159,6.462-1.159c1.275,0,2.532,0.135,3.844,0.412
c4.478,0.948,8.308,3.252,10.784,6.488c1.963,2.565,2.791,5.867,3.593,9.06c1.149,4.577,2.234,8.9,6.369,11.233
c2.566,1.447,5.462,2.315,8.263,3.154c1.55,0.464,3.154,0.945,4.686,1.518c4.359,1.632,6.781,4.108,7.622,7.792
c0.405,1.777,0.555,3.605,0.701,5.373c0.216,2.631,0.439,5.351,1.52,7.866c1.696,3.945,5.23,6.502,8.647,8.975
c0.377,0.273,0.753,0.545,1.125,0.818l0.066,0.048c3.229,2.368,6.569,4.817,9.185,7.898c1.248,1.47,2.392,4.621,2.065,7.148
c-0.192,1.481-1.043,2.86-2.398,3.883C149.709,148.456,147.791,149.424,144.755,149.424z M91.802,112.085
c0.476,0,0.954,0.021,1.421,0.062c2.313,0.203,4.526,0.94,6.399,2.13c2.275,1.445,3.678,3.395,5.275,5.794
c1.481,2.225,3.362,4.058,5.59,5.451c0.76,0.475,1.572,0.905,2.356,1.321c1.01,0.535,2.054,1.089,3.02,1.752
c1.833,1.26,3.195,2.98,4.164,5.258c1.059,2.492,2.532,4.513,4.503,6.178c2.053,1.734,4.412,3.124,6.45,4.255
c5.378,2.985,10.012,4.498,13.775,4.498c2.859,0,4.647-0.898,5.643-1.651c1.217-0.919,1.98-2.146,2.149-3.455
c0.295-2.281-0.754-5.281-1.918-6.652c-2.567-3.024-5.876-5.45-9.075-7.796l-0.066-0.048c-0.371-0.272-0.745-0.543-1.122-0.815
c-3.488-2.524-7.094-5.133-8.86-9.241c-1.123-2.611-1.35-5.384-1.57-8.066c-0.143-1.746-0.291-3.551-0.687-5.283
c-0.789-3.455-3.084-5.785-7.222-7.335c-1.512-0.566-3.105-1.043-4.645-1.505c-2.835-0.849-5.766-1.727-8.394-3.21
c-4.375-2.468-5.544-7.128-6.675-11.634c-0.785-3.13-1.598-6.367-3.48-8.827c-2.383-3.115-6.08-5.335-10.408-6.251
c-1.268-0.268-2.481-0.398-3.711-0.398c-2.035,0-4.081,0.367-6.252,1.123c-3.808,1.325-7.941,1.847-11.938,2.351
c-0.636,0.08-1.269,0.16-1.897,0.243c-2.17,0.286-4.377,0.562-6.512,0.828c-4.117,0.514-8.374,1.046-12.545,1.673
c-0.455,0.068-0.937,0.133-1.438,0.202c-3.998,0.542-8.973,1.217-10.972,4.694c-1.648,2.866,0.498,6.083,1.195,7.001
c0.825,1.087,1.869,1.83,2.974,2.618c0.871,0.621,1.773,1.263,2.55,2.086c2.283,2.416,2.608,5.921,2.734,9.015
c0.058,1.416,0.023,2.836-0.011,4.208c-0.091,3.724-0.177,7.241,1.442,10.695c1.775,3.786,4.965,7.222,9.225,9.934
c4.008,2.552,8.336,4.117,12.515,4.525c0.765,0.075,1.518,0.112,2.24,0.112c2.86,0,6.626-0.601,8.328-3.466
c0.502-0.845,0.83-1.807,1.147-2.738c0.164-0.481,0.333-0.978,0.526-1.458c0.761-1.896,1.827-3.382,3.261-4.543
C84.139,113.41,87.972,112.085,91.802,112.085z"/>
</g>
<g clip-path="url(#SVGID_3_)">
<path fill="rgba(0,0,0,0.16)" d="M63.282,118.564c-2.337,0-4.728-0.911-7.31-2.785c-8.667-6.291-7.751-10.561-6.591-15.968
c0.189-0.881,0.384-1.791,0.543-2.743c0.859-5.153-0.741-7.405-2.289-9.583c-1.274-1.793-2.477-3.487-2.035-6.551
c0.012-0.402,0.324-4.453,8.326-4.294c0.665,0.013,1.337,0.029,2.013,0.044c1.851,0.043,3.765,0.087,5.644,0.087
c5.062,0,10.793-0.278,14.913-2.338c2.23-1.115,4.627-1.705,6.93-1.705c4.465,0,7.907,2.258,9.446,6.194
c1.322,3.384,1.465,5.826,1.591,7.98c0.127,2.168,0.236,4.04,1.499,6.384c2.031,3.772,7.85,5.714,13.477,7.593
c6.41,2.14,12.465,4.161,11.19,8.804c-0.865,3.15-2.462,4.682-4.883,4.682c0,0-0.001,0-0.001,0c-2.32,0-5.178-1.4-8.203-2.883
c-1.089-0.534-2.216-1.086-3.352-1.591l-0.923-0.412c-4.504-2.014-10.11-4.52-15.432-4.52c-3.362,0-6.172,0.977-8.59,2.986
c-1.395,1.159-2.717,2.399-3.996,3.598C71.4,115.154,67.765,118.564,63.282,118.564z M53.476,77.276
c-7.152,0-7.236,3.648-7.236,3.684l-0.003,0.046c-0.413,2.823,0.669,4.345,1.921,6.108c1.547,2.177,3.3,4.645,2.398,10.059
c-0.161,0.967-0.358,1.885-0.549,2.773c-1.111,5.179-1.989,9.27,6.341,15.316c2.469,1.792,4.737,2.663,6.934,2.663
c4.23,0,7.775-3.326,11.529-6.847c1.285-1.206,2.615-2.452,4.024-3.623c2.503-2.079,5.531-3.133,8.999-3.133
c5.459,0,11.134,2.537,15.694,4.575l0.922,0.411c1.148,0.51,2.28,1.065,3.374,1.602c2.956,1.449,5.749,2.818,7.921,2.818
c0,0,0,0,0.001,0c2.122,0,3.477-1.338,4.266-4.212c1.114-4.059-4.395-5.898-10.775-8.028c-5.745-1.918-11.687-3.901-13.838-7.896
c-1.33-2.469-1.448-4.5-1.574-6.65c-0.123-2.107-0.263-4.495-1.548-7.785c-1.967-5.036-6.389-5.788-8.849-5.788
c-2.204,0-4.502,0.566-6.644,1.637c-4.239,2.119-10.062,2.405-15.2,2.405c-1.886,0-3.804-0.044-5.659-0.087
c-0.675-0.016-1.346-0.031-2.011-0.044C53.764,77.277,53.619,77.276,53.476,77.276z"/>
</g>
<g clip-path="url(#SVGID_3_)">
<path fill="rgba(0,0,0,0.16)" d="M63.553,111.471c-1.082,0-2.159-0.264-3.202-0.785c-0.016-0.004-4.39-1.765-2.741-8.364
c0.68-2.72-0.095-4.973-0.845-7.153c-0.99-2.877-1.925-5.595,0.531-8.959c2.356-3.227,4.172-3.672,5.784-3.672
c0.611,0,1.229,0.071,1.883,0.146c0.739,0.085,1.502,0.173,2.356,0.173c0.602,0,1.175-0.044,1.752-0.134
c1.939-0.303,3.409-0.994,4.831-1.663c1.517-0.713,2.95-1.387,4.67-1.387c0.86,0,1.73,0.166,2.659,0.506
c2.345,0.86,4.359,3.254,5.388,6.404c0.972,2.975,0.806,5.977-0.432,7.834c-1.447,2.171-3.582,3.227-6.527,3.227
c-1.238,0-2.433-0.182-3.552-0.368c-1.233-0.205-2.067-0.043-2.555,0.504c-0.559,0.627-0.729,1.813-0.52,3.624
c0.202,1.75-1.03,4.567-2.929,6.697C68.166,110.274,65.84,111.471,63.553,111.471z M63.08,83.179
c-1.667,0-3.201,0.58-5.267,3.409c-2.259,3.094-1.417,5.54-0.443,8.373c0.78,2.267,1.586,4.611,0.86,7.516
c-1.514,6.055,2.338,7.609,2.377,7.624c0.982,0.488,1.963,0.73,2.945,0.73c2.102,0,4.258-1.121,6.073-3.156
c1.788-2.006,2.954-4.613,2.771-6.198c-0.234-2.031-0.019-3.341,0.678-4.123c0.639-0.717,1.674-0.954,3.138-0.71
c1.092,0.182,2.258,0.36,3.447,0.36c2.714,0,4.675-0.962,5.994-2.942c1.132-1.698,1.268-4.487,0.356-7.28
c-0.968-2.965-2.838-5.209-5-6.002c-0.857-0.314-1.655-0.467-2.438-0.467c-1.577,0-2.884,0.615-4.398,1.326
c-1.395,0.656-2.975,1.399-5.005,1.717c-0.61,0.095-1.215,0.142-1.851,0.142c-0.89,0-1.672-0.09-2.429-0.177
C64.254,83.248,63.654,83.179,63.08,83.179z"/>
</g>
<g clip-path="url(#SVGID_3_)">
<path fill="rgba(0,0,0,0.16)" d="M75.267,93.76c-2.257,0-4.092-1.974-4.092-4.4c0-2.714,1.297-4.4,3.385-4.4c2.22,0,4.8,1.922,4.8,4.4
C79.36,91.786,77.524,93.76,75.267,93.76z M74.56,85.6c-2.547,0-2.745,2.878-2.745,3.76c0,2.073,1.549,3.76,3.452,3.76
c1.904,0,3.453-1.687,3.453-3.76C78.72,87.277,76.444,85.6,74.56,85.6z"/>
</g>
<g clip-path="url(#SVGID_3_)">
<path fill="rgba(0,0,0,0.16)" d="M0.487,163.626c-1.055,0-2.182-0.361-3.174-1.016c-2.47-1.633-3.384-3.587-2.385-5.1
c0.655-0.99,2.038-1.629,3.526-1.629c1.002,0,1.959,0.282,2.767,0.817c2.208,1.46,3.129,3.974,2.052,5.604
C2.717,163.143,1.701,163.626,0.487,163.626z M-1.545,156.521c-1.278,0-2.453,0.527-2.992,1.342
c-0.935,1.414,0.526,3.103,2.204,4.213c0.888,0.587,1.889,0.91,2.821,0.91c0.995,0,1.816-0.378,2.252-1.038
c0.883-1.336,0.043-3.452-1.871-4.717C0.166,156.767-0.669,156.521-1.545,156.521z"/>
</g>
<g clip-path="url(#SVGID_3_)">
<path fill="rgba(0,0,0,0.16)" d="M320.487,163.626c-1.056,0-2.183-0.361-3.174-1.016c-2.47-1.633-3.384-3.587-2.384-5.1
c0.654-0.99,2.038-1.629,3.525-1.629c1.002,0,1.959,0.282,2.768,0.817c2.208,1.46,3.129,3.974,2.051,5.604
C322.717,163.143,321.701,163.626,320.487,163.626z M318.454,156.521c-1.278,0-2.452,0.527-2.992,1.342
c-0.934,1.414,0.526,3.103,2.204,4.213c0.887,0.587,1.889,0.91,2.821,0.91c0.995,0,1.816-0.378,2.252-1.038
c0.883-1.336,0.043-3.452-1.871-4.717C320.166,156.767,319.331,156.521,318.454,156.521z"/>
</g>
<g clip-path="url(#SVGID_3_)">
<path fill="rgba(0,0,0,0.16)" d="M299.939,279.396c-1.916,0-3.923-0.737-5.506-2.022c-3.201-2.597-4.541-6.269-2.986-8.185
c0.612-0.755,1.582-1.153,2.803-1.153c1.8,0,3.976,0.894,5.821,2.391c3.58,2.905,4.912,5.81,3.476,7.579
C302.831,278.889,301.516,279.396,299.939,279.396z M294.25,268.676c-1.022,0-1.82,0.317-2.306,0.917
c-1.332,1.642-0.035,4.91,2.893,7.285c1.471,1.194,3.331,1.878,5.103,1.878c1.383,0,2.517-0.42,3.111-1.153
c1.419-1.749-0.817-4.597-3.382-6.679C297.934,269.516,295.908,268.676,294.25,268.676z"/>
</g>
<g clip-path="url(#SVGID_3_)">
<path fill="rgba(0,0,0,0.16)" d="M16.984,73.865c-0.768-0.941-2.067-1.399-3.971-1.399c-1.709,0-3.678,0.368-5.415,0.692
c-1.148,0.215-2.233,0.417-3.087,0.487c-0.006,0-0.616,0.03-1.62,0.03c-2.208,0-6.173-0.143-10.152-0.978v0.654
c3.993,0.822,7.942,0.964,10.152,0.964c1.022,0,1.626-0.03,1.662-0.032c0.897-0.073,1.997-0.279,3.162-0.497
c1.71-0.319,3.648-0.682,5.297-0.682c1.699,0,2.836,0.381,3.475,1.164c0.665,0.816,0.817,2.133,0.451,3.916
c-1.356,6.612-8.15,7.326-11.008,7.326c-0.542,0-0.874-0.028-0.905-0.03c-2.606,0-5.56-1.393-8.688-2.869
c-1.178-0.556-2.375-1.118-3.599-1.634v0.697c1.127,0.482,2.235,1.003,3.326,1.517c3.193,1.506,6.209,2.928,8.929,2.928h0.004
c0.015,0.001,0.36,0.031,0.933,0.031c0,0,0,0,0,0c2.353,0,10.143-0.566,11.635-7.837C17.978,76.306,17.787,74.85,16.984,73.865z"
/>
</g>
<g clip-path="url(#SVGID_3_)">
<path fill="rgba(0,0,0,0.16)" d="M327.261,85.46c-0.498,0.038-0.949,0.051-1.33,0.051c-0.542,0-0.874-0.028-0.905-0.03
c-2.606,0-5.56-1.393-8.688-2.869c-2.491-1.175-5.067-2.39-7.803-3.102l-0.814-0.211c-4.734-1.224-11.218-2.9-12.567-5.462
c-0.296-0.563-0.331-1.138-0.105-1.758c0.473-1.3,1.682-1.932,3.696-1.932c2.593,0,6.13,1.033,9.551,2.032
c0.693,0.202,1.384,0.404,2.064,0.597c4.728,1.338,9.88,1.538,12.531,1.538c1.022,0,1.626-0.03,1.662-0.032
c0.779-0.064,1.712-0.227,2.707-0.412v-0.651c-1.022,0.19-1.98,0.361-2.749,0.424c-0.006,0-0.616,0.03-1.62,0.03
c-2.618,0-7.703-0.197-12.357-1.514c-0.678-0.192-1.367-0.393-2.059-0.595c-3.464-1.012-7.046-2.058-9.731-2.058
c-2.316,0-3.722,0.77-4.297,2.353c-0.287,0.788-0.239,1.553,0.14,2.275c1.48,2.812,7.853,4.459,12.973,5.783l0.813,0.211
c2.678,0.696,5.227,1.898,7.691,3.061c3.193,1.506,6.209,2.928,8.929,2.928h0.004c0.014,0.001,0.36,0.031,0.933,0.031
c0.34,0,0.797-0.013,1.33-0.055V85.46z"/>
</g>
<g clip-path="url(#SVGID_3_)">
<path fill="rgba(0,0,0,0.16)" d="M327.261,148.023c-2.729-2.533-6.53-4.669-12.296-6.252c-6.133-1.684-9.284-3.87-12.332-5.984
c-4.108-2.85-7.989-5.542-18.433-6.825c-2.704-0.332-4.715-1.343-5.978-3.005c-1.649-2.17-2.115-5.464-1.424-10.07
c0.842-5.615,10.881-13.901,18.783-13.901c1.022,0,1.994,0.135,2.89,0.4c3.286,0.973,6.937,1.467,10.853,1.467
c3.837,0,6.55-0.494,6.591-0.502c0.021-0.005,2.123-0.484,5.292-0.484c1.78,0,3.844,0.147,6.057,0.58v-0.651
c-2.211-0.423-4.273-0.569-6.057-0.569c-3.248,0-5.349,0.48-5.422,0.498c-0.027,0.005-2.687,0.488-6.46,0.488
c-3.854,0-7.444-0.485-10.671-1.441c-0.955-0.283-1.988-0.426-3.072-0.426c-8.328,0-18.521,8.478-19.416,14.446
c-0.718,4.786-0.212,8.237,1.548,10.552c1.372,1.805,3.528,2.899,6.41,3.253c10.288,1.263,14.105,3.912,18.147,6.716
c3.092,2.145,6.289,4.363,12.528,6.075c5.988,1.644,9.781,3.837,12.465,6.484V148.023z"/>
</g>
<g clip-path="url(#SVGID_3_)">
<path fill="rgba(0,0,0,0.16)" d="M46.164,264.927c-0.336,0-0.683-0.017-1.033-0.051c-6.127-0.593-8.346-3.597-11.271-8.473
c-1.248-2.08-2.99-2.765-4.834-3.49c-2.27-0.893-4.617-1.815-5.836-5.473c-0.533-1.599-1.176-3.003-1.743-4.242
c-1.745-3.811-3.006-6.565,0.445-10.766c0.027-0.043,1.148-1.665,4.604-1.665c1.97,0,4.319,0.528,6.981,1.57
c2.004,0.784,4.185,1.182,6.483,1.182c7.556,0,14.416-4.185,17.015-5.984c2.334-1.616,4.469-2.435,6.346-2.435
c1.993,0,3.636,0.942,4.749,2.722c0.652,1.043,2.441,1.922,4.336,2.853c3.529,1.734,7.529,3.7,6.34,7.662
c-0.961,3.202-3.707,5.388-6.129,7.316c-2.056,1.636-3.998,3.181-4.51,5.058c-0.694,2.546-2.979,3.214-5.398,3.922
c-1.889,0.552-3.842,1.123-5.325,2.606c-0.681,0.681-1.337,1.421-1.971,2.136C52.991,262.104,50.488,264.927,46.164,264.927z
 M26.496,231.407c-3.084,0-4.082,1.393-4.092,1.408c-3.215,3.915-2.085,6.382-0.375,10.117c0.574,1.254,1.225,2.675,1.768,4.306
c1.125,3.373,3.232,4.202,5.463,5.079c1.863,0.733,3.789,1.49,5.149,3.757c2.812,4.688,4.838,7.59,10.784,8.166
c0.33,0.032,0.656,0.048,0.972,0.048c4.036,0,6.335-2.592,8.769-5.337c0.641-0.722,1.303-1.469,1.998-2.164
c1.598-1.598,3.723-2.219,5.598-2.768c2.34-0.684,4.36-1.275,4.96-3.475c0.567-2.079,2.588-3.688,4.729-5.391
c2.464-1.961,5.011-3.988,5.915-6.998c1.033-3.443-2.547-5.203-6.01-6.904c-1.979-0.972-3.847-1.89-4.596-3.088
c-1.004-1.607-2.419-2.422-4.206-2.422c-1.744,0-3.756,0.781-5.981,2.322c-2.648,1.833-9.643,6.098-17.379,6.098
c-2.378,0-4.638-0.413-6.716-1.226C30.656,231.921,28.386,231.407,26.496,231.407z"/>
</g>
<g clip-path="url(#SVGID_3_)">
<path fill="rgba(0,0,0,0.16)" d="M45.583,253.36c-6.593,0-12.209-2.361-14.656-6.162c-1.376-2.137-1.577-4.539-0.566-6.763
c1.047-2.303,2.471-3.33,4.617-3.33c1.218,0,2.553,0.313,4.099,0.676c1.925,0.451,4.106,0.963,6.571,0.963
c0.413,0,0.828-0.015,1.233-0.043c0.029-0.004,4.586-0.607,8.336-3.607c1.874-1.499,3.94-2.359,5.668-2.359
c2.304,0,3.742,1.506,3.944,4.132c0.389,5.063-4.308,15.415-16.933,16.402C47.118,253.329,46.34,253.36,45.583,253.36z
 M34.977,237.745c-1.886,0-3.093,0.884-4.034,2.955c-0.931,2.048-0.75,4.175,0.522,6.152c2.331,3.62,7.74,5.868,14.118,5.868
c0.741,0,1.502-0.03,2.263-0.09c12.18-0.952,16.717-10.867,16.345-15.714c-0.178-2.317-1.321-3.541-3.306-3.541
c-1.585,0-3.506,0.809-5.268,2.219c-3.895,3.116-8.48,3.719-8.673,3.743c-0.437,0.032-0.867,0.047-1.295,0.047
c-2.539,0-4.759-0.521-6.717-0.98C37.423,238.05,36.122,237.745,34.977,237.745z"/>
</g>
<g clip-path="url(#SVGID_3_)">
<path fill="rgba(0,0,0,0.16)" d="M43.327,247.459c-2.722,0-3.128-1.288-3.128-2.055c0.01-0.132,0.275-2.623,5.325-3.027
c1.167-0.093,2.273-0.233,3.25-0.356c1.185-0.149,2.208-0.279,2.971-0.279c0.575,0,1.272,0.061,1.565,0.535
c0.203,0.328,0.163,0.765-0.123,1.336C52.342,245.302,46.813,247.459,43.327,247.459z M51.744,242.382
c-0.722,0-1.727,0.127-2.891,0.274c-0.983,0.124-2.098,0.265-3.279,0.359c-4.459,0.357-4.735,2.399-4.737,2.42
c0.001,0.908,0.839,1.385,2.49,1.385c3.423,0,8.614-2.145,9.287-3.493c0.168-0.336,0.223-0.596,0.151-0.713
C52.712,242.527,52.508,242.382,51.744,242.382z"/>
</g>
<g clip-path="url(#SVGID_3_)">
<path fill="rgba(0,0,0,0.16)" d="M159.426,188.017c-3.939-2.58-8.403-5.504-11.317-10.056c-5.441-8.502-16.739-12.747-24.215-15.556
c-2.041-0.767-3.804-1.429-5.146-2.055c-4.936-2.304-7.308-7.656-10.054-13.853c-0.747-1.686-1.52-3.429-2.38-5.196
c-2.902-5.957-7.713-8.07-10.952-8.07c-1.603,0-2.867,0.517-3.469,1.419c-1.247,1.871-4.671,5.036-9.593,5.036
c-0.637,0-1.285-0.054-1.928-0.161c-0.406-0.068-0.811-0.102-1.202-0.102c-2.725,0-4.641,1.604-6.67,3.302
c-1.749,1.464-3.558,2.978-6.011,3.523c-0.681,0.151-1.358,0.228-2.012,0.228c-4.581,0-7.804-3.691-10.465-7.151
c-1.93-2.509-3.741-3.423-6.742-4.938c-2.099-1.06-4.712-2.379-8.379-4.736c-4.51-2.899-6.112-5.418-8.14-8.608
c-1.977-3.109-4.218-6.632-9.74-11.523c-6.805-6.027-14.528-7.293-19.808-7.293c-3.248,0-5.349,0.48-5.422,0.498
c-0.017,0.003-1.179,0.213-3.042,0.357v0.642c1.933-0.147,3.145-0.367,3.173-0.372c0.021-0.005,2.123-0.484,5.292-0.484
c5.17,0,12.729,1.237,19.384,7.132c5.455,4.831,7.67,8.314,9.625,11.387c1.989,3.127,3.706,5.827,8.335,8.802
c3.695,2.375,6.324,3.702,8.436,4.769c2.92,1.474,4.682,2.363,6.523,4.757c2.754,3.581,6.101,7.401,10.973,7.401
c0.701,0,1.424-0.082,2.15-0.243c2.605-0.579,4.475-2.144,6.283-3.658c1.937-1.621,3.766-3.153,6.259-3.153
c0.356,0,0.725,0.032,1.096,0.093c0.677,0.113,1.361,0.17,2.033,0.17c4.544,0,8.36-2.673,10.126-5.321
c0.473-0.71,1.571-1.134,2.936-1.134c3.295,0,7.782,2.384,10.377,7.71c0.856,1.757,1.626,3.495,2.371,5.176
c2.798,6.315,5.215,11.769,10.368,14.174c1.364,0.637,3.138,1.303,5.191,2.075c7.397,2.779,18.575,6.979,23.901,15.302
c2.987,4.667,7.513,7.631,11.505,10.246c5.215,3.415,8.983,5.883,7.031,10.36c-1.211,2.778-3.924,4.186-8.065,4.186
c-5.78,0-13.176-2.821-17.495-5.607c-0.848-0.547-1.671-1.09-2.476-1.622c-5.319-3.511-9.913-6.543-15.543-6.543
c-0.169,0-0.34,0.003-0.51,0.008c-5.36,0.154-8.959-4.088-12.435-8.203c-0.7-0.828-1.361-1.611-2.037-2.359
c-1.835-2.028-4.965-2.604-8.28-3.215c-4.077-0.751-8.293-1.527-9.795-5.224c-1.233-3.036-3.589-4.641-6.813-4.641
c-2.926,0-6.451,1.33-9.671,3.648c-2.889,2.08-6.199,3.179-9.572,3.179c-2.576,0-5.122-0.663-7.364-1.919
c-2.504-1.402-4.297-2.001-5.993-2.001c-2.435,0-4.624,1.322-7.161,3.308c-1.782,1.394-5.055,2.227-8.757,2.227h-0.001
c-6.019,0-13.646-2.295-17.001-8.737c-1.041-1.999-1.889-3.938-2.709-5.814c-3.325-7.605-6.198-14.173-19.463-17.814
c-0.79-0.217-1.528-0.442-2.225-0.674v0.673c0.648,0.212,1.33,0.419,2.056,0.618c12.971,3.561,15.652,9.692,19.046,17.453
c0.824,1.885,1.677,3.835,2.728,5.853c3.487,6.695,11.362,9.081,17.569,9.081h0.001c3.84,0,7.261-0.883,9.151-2.363
c2.917-2.283,4.814-3.172,6.767-3.172c1.579,0,3.278,0.574,5.68,1.919c2.338,1.309,4.992,2.001,7.677,2.001
c3.508,0,6.948-1.141,9.946-3.3c3.068-2.209,6.543-3.528,9.297-3.528c2.984,0,5.076,1.427,6.22,4.241
c1.634,4.022,6.025,4.831,10.272,5.613c3.205,0.59,6.232,1.148,7.921,3.015c0.669,0.74,1.327,1.518,2.023,2.342
c3.406,4.033,7.273,8.603,12.945,8.43c5.663-0.19,10.291,2.872,15.681,6.429c0.807,0.533,1.632,1.077,2.482,1.626
c4.398,2.838,11.938,5.71,17.842,5.71c4.356,0,7.348-1.581,8.651-4.571C168.861,194.196,164.488,191.333,159.426,188.017z"/>
</g>
<g clip-path="url(#SVGID_3_)">
<path fill="rgba(0,0,0,0.16)" d="M63.534,157.221c-0.579-2.379-5.222-5.149-10.351-6.175c-3.068-0.614-4.349-2.414-5.832-4.498
c-1.472-2.069-3.141-4.414-6.925-5.731c-6.738-2.343-10.425-8.142-15.093-15.483c-0.349-0.549-0.703-1.105-1.063-1.668
c-5.044-7.882-12.263-12.048-20.875-12.048c-0.597,0-1.208,0.021-1.816,0.061c-2.166,0.144-4.231,0.215-6.314,0.215
c-0.867,0-1.705-0.014-2.525-0.036v0.64c0.82,0.022,1.658,0.036,2.525,0.036c2.097,0,4.176-0.071,6.357-0.216
c0.594-0.04,1.191-0.06,1.774-0.06c8.383,0,15.415,4.064,20.336,11.753c0.36,0.562,0.713,1.117,1.062,1.666
c4.547,7.151,8.475,13.327,15.423,15.744c3.592,1.249,5.128,3.409,6.614,5.497c1.497,2.104,2.911,4.091,6.228,4.754
c4.825,0.965,9.338,3.575,9.855,5.698c0.16,0.658-0.073,1.227-0.712,1.738c-0.596,0.477-1.427,0.719-2.47,0.719c0,0,0,0-0.001,0
c-3.842,0-9.478-3.228-12.134-6.126c-3.881-4.234-9.573-8.758-13.909-8.758c-0.145,0-0.288,0.005-0.43,0.015
c-0.155,0.011-0.316,0.016-0.481,0.016c-4.634,0-12.53-4.108-14.566-8.473c-2.221-4.76-5.576-7.49-9.204-7.49
c-0.673,0-1.362,0.093-2.048,0.276c-0.97,0.258-2.069,0.658-3.233,1.081c-2.678,0.973-5.714,2.077-8.685,2.077
c-0.812,0-1.577-0.084-2.3-0.251v0.657c0.726,0.156,1.491,0.235,2.3,0.235c3.084,0,6.176-1.124,8.904-2.115
c1.15-0.418,2.237-0.813,3.18-1.065c0.633-0.168,1.266-0.254,1.883-0.254c3.369,0,6.513,2.595,8.624,7.12
c2.184,4.679,10.289,8.842,15.147,8.842c0.181,0,0.356-0.006,0.526-0.018c0.127-0.009,0.255-0.013,0.384-0.013
c4.133,0,9.822,4.606,13.437,8.551c2.746,2.996,8.598,6.333,12.606,6.333h0.001c1.191,0,2.157-0.289,2.869-0.859
C63.648,158.771,63.686,157.848,63.534,157.221z"/>
</g>
<g clip-path="url(#SVGID_3_)">
<path fill="rgba(0,0,0,0.16)" d="M327.261,129.22c-0.101,0.023-0.202,0.044-0.303,0.071c-0.97,0.258-2.069,0.658-3.233,1.081
c-2.678,0.973-5.714,2.077-8.685,2.077c-2.521,0-4.594-0.799-6.34-2.442c-5.043-4.747-10.149-6.228-13.876-7.309
c-2.618-0.76-4.51-1.309-5.181-2.619c-0.443-0.866-0.361-2.077,0.257-3.806c0.074-0.194,1.936-4.901,8.967-4.593
c2.107,0.092,4.117,0.238,6.06,0.38c3.203,0.234,6.515,0.476,10.338,0.476c2.097,0,4.177-0.071,6.357-0.216
c0.594-0.04,1.191-0.06,1.773-0.06c1.323,0,2.613,0.102,3.866,0.303v-0.649c-1.254-0.195-2.543-0.294-3.866-0.294
c-0.597,0-1.208,0.021-1.816,0.061c-2.166,0.144-4.231,0.215-6.314,0.215c-3.8,0-7.1-0.241-10.292-0.474
c-1.948-0.142-3.962-0.289-6.079-0.381c-7.509-0.329-9.574,4.955-9.595,5.012c-0.683,1.912-0.755,3.284-0.226,4.317
c0.796,1.557,2.799,2.138,5.572,2.942c3.665,1.063,8.684,2.52,13.616,7.161c1.87,1.76,4.087,2.616,6.779,2.616
c3.084,0,6.176-1.124,8.903-2.115c1.151-0.418,2.237-0.813,3.18-1.065c0.046-0.012,0.092-0.021,0.138-0.032V129.22z"/>
</g>
<g clip-path="url(#SVGID_3_)">
<path fill="rgba(0,0,0,0.16)" d="M32.889,167.51c-3.003,0-4.907-1.05-5.36-2.956c-0.803-3.373-2.89-5.027-4.414-6.235
c-1.145-0.907-2.049-1.625-2.031-2.695c0.014-0.779,0.618-1.423,1.656-1.767c1.308-0.433,3.317-0.948,5.46-0.948
c2.261,0,4.144,0.579,5.597,1.72c1.487,1.168,3.42,2.147,5.289,3.094c2.78,1.408,5.18,2.623,5.427,4.169
c0.099,0.622-0.159,1.246-0.768,1.854C41.706,165.787,36.734,167.51,32.889,167.51z M28.2,153.548
c-2.057,0-3.995,0.498-5.259,0.916c-0.362,0.12-1.205,0.474-1.217,1.171c-0.013,0.754,0.742,1.353,1.788,2.182
c1.597,1.266,3.784,3,4.639,6.588c0.485,2.037,2.844,2.464,4.738,2.464c3.637,0,8.499-1.671,10.405-3.577
c0.462-0.462,0.654-0.888,0.588-1.301c-0.195-1.223-2.57-2.426-5.084-3.699c-1.897-0.961-3.859-1.954-5.395-3.162
C32.065,154.081,30.315,153.548,28.2,153.548z"/>
</g>
<g clip-path="url(#SVGID_3_)">
<path fill="rgba(0,0,0,0.16)" d="M123.449,176.237c-1.551,0-3.651-1.193-6.083-2.573c-2.883-1.637-6.151-3.493-8.924-3.493
c-0.301,0-0.594,0.022-0.872,0.066c-0.734,0.116-1.466,0.175-2.174,0.175c-4.811,0-8.772-2.722-10.337-7.103
c-1.135-3.179-5-5.146-7.929-5.146c-1.132,0-2.091,0.281-2.773,0.811c-1.824,1.418-4.978,2.926-7.232,2.926
c-1.126,0-1.941-0.36-2.423-1.07c-0.47-0.692-0.563-1.51-0.654-2.302c-0.018-0.161-0.037-0.321-0.058-0.479
c-0.358-2.638-0.495-8.913,5.947-10.202c1.249-0.25,2.338-0.371,3.331-0.371c2.473,0,3.86,0.753,5.328,1.551
c1.414,0.768,2.876,1.563,5.501,1.694c6.453,0.323,8.172,2.901,11.29,7.582l0.16,0.24c1.353,2.029,5.699,4.899,9.903,7.674
c5.171,3.414,9.637,6.362,9.896,8.342c0.051,0.387-0.052,0.728-0.306,1.013C124.647,176.013,124.113,176.237,123.449,176.237z
 M108.442,169.53c2.942,0,6.288,1.9,9.24,3.577c2.255,1.28,4.385,2.49,5.767,2.49c0.48,0,0.844-0.147,1.112-0.449
c0.129-0.145,0.176-0.305,0.15-0.505c-0.222-1.69-4.997-4.843-9.615-7.892c-4.257-2.81-8.658-5.716-10.083-7.853l-0.16-0.24
c-3.101-4.655-4.658-6.991-10.79-7.298c-2.771-0.139-4.298-0.968-5.774-1.771c-1.394-0.758-2.711-1.474-5.022-1.474
c-0.95,0-1.998,0.118-3.205,0.359c-5.698,1.139-5.853,6.434-5.439,9.488c0.022,0.163,0.041,0.327,0.06,0.492
c0.085,0.748,0.166,1.453,0.547,2.015c0.356,0.524,0.993,0.789,1.894,0.789c2.111,0,5.099-1.438,6.839-2.791
c0.796-0.619,1.891-0.946,3.166-0.946c3.216,0,7.286,2.084,8.532,5.571c1.471,4.12,5.201,6.679,9.734,6.678
c0.675,0,1.373-0.056,2.075-0.167C107.781,169.555,108.108,169.53,108.442,169.53z"/>
</g>
<g clip-path="url(#SVGID_3_)">
<path fill="rgba(0,0,0,0.16)" d="M164.519,180.438c-1.255,0-2.083-0.819-3.131-1.855c-0.617-0.61-1.317-1.303-2.257-2.001
c-0.975-0.725-2.572-1.538-4.262-2.398c-3.459-1.761-6.726-3.424-6.711-5.14c0.006-0.672,0.515-1.259,1.513-1.745
c0.199-0.093,4.829-2.245,9.397-2.245c2.163,0,3.958,0.491,5.337,1.46c3.169,2.227,5.198,5.842,5.048,8.997
c-0.086,1.809-0.911,3.248-2.323,4.053C166.082,180.16,165.252,180.438,164.519,180.438z M159.069,165.694
c-4.426,0-9.074,2.161-9.12,2.183c-0.758,0.369-1.146,0.765-1.15,1.173c-0.012,1.319,3.522,3.118,6.362,4.564
c1.715,0.873,3.335,1.698,4.353,2.455c0.976,0.725,1.692,1.434,2.325,2.059c1.017,1.006,1.689,1.67,2.681,1.67
c0.617,0,1.347-0.252,2.295-0.792c1.557-0.887,1.947-2.407,2-3.527c0.139-2.944-1.78-6.337-4.777-8.443
C162.769,166.146,161.098,165.694,159.069,165.694z"/>
</g>
<g clip-path="url(#SVGID_3_)">
<path fill="rgba(0,0,0,0.16)" d="M282.509,78.097c0.547,0.058,1.063,0.113,1.511,0.183c1.849,0.287,4.2,0.821,5.981,2.407
c0.447,0.398,0.863,0.848,1.266,1.284c0.49,0.53,0.997,1.078,1.578,1.558c1.033,0.851,2.195,1.593,3.455,2.206
c2.232,1.086,4.718,1.762,7.39,2.009c0.933,0.086,1.874,0.031,2.782-0.023c0.968-0.058,1.881-0.112,2.793-0.011
c2.003,0.221,3.965,1.222,5.862,2.19c0.954,0.487,1.942,0.99,2.906,1.377c2.873,1.15,5.846,1.774,9.227,1.913v-0.631
c-3.292-0.132-6.151-0.739-8.989-1.876c-0.938-0.375-1.868-0.85-2.853-1.353c-1.948-0.994-3.963-2.022-6.083-2.256
c-0.966-0.107-1.95-0.048-2.9,0.008c-0.885,0.053-1.8,0.107-2.686,0.025c-2.595-0.24-5.007-0.895-7.169-1.947
c-1.214-0.591-2.334-1.306-3.328-2.124c-0.548-0.452-1.04-0.983-1.515-1.498c-0.413-0.447-0.84-0.909-1.311-1.328
c-1.906-1.697-4.373-2.26-6.309-2.561c-0.463-0.072-0.987-0.128-1.542-0.187c-2.124-0.227-4.768-0.509-5.92-1.938
c-0.491-0.61-0.678-1.378-0.573-2.349c0.181-1.666,1.805-2.406,3.453-3.021c0.279-0.104,0.557-0.206,0.832-0.307
c1.86-0.682,3.617-1.328,5.299-2.448c3.585-2.388,7.986-3.115,13.079-2.162c1.555,0.291,3.103,0.74,4.599,1.175
c1.401,0.407,2.85,0.828,4.315,1.123c2.501,0.503,5.22,0.855,8.315,1.076c0.86,0.061,1.573,0.16,2.262,0.256
c1.782,0.248,3.466,0.482,7.205-0.012c0.631-0.083,1.234-0.168,1.818-0.255V67.95c-0.608,0.09-1.239,0.179-1.901,0.267
c-3.654,0.482-5.296,0.255-7.033,0.013c-0.7-0.097-1.423-0.198-2.305-0.26c-3.067-0.218-5.76-0.567-8.234-1.065
c-1.438-0.29-2.874-0.707-4.262-1.11c-1.512-0.439-3.075-0.893-4.661-1.189c-5.263-0.985-9.823-0.225-13.551,2.259
c-1.619,1.078-3.341,1.711-5.164,2.38c-0.277,0.102-0.556,0.204-0.836,0.309c-1.357,0.506-3.627,1.354-3.865,3.551
c-0.123,1.133,0.116,2.082,0.711,2.82C277.477,77.56,280.267,77.858,282.509,78.097z"/>
<path fill="rgba(0,0,0,0.16)" d="M327.261,261.044c-1.26-0.486-2.502-0.911-3.718-1.326c-5.901-2.015-11.474-3.919-16.055-11.54
c-0.164-0.418-2.424-6.243-2.151-9.799c0.172-2.234-1.255-5.268-3.47-7.38c-2.332-2.223-5.263-3.242-8.252-2.868l-0.532,0.067
c-6.807,0.855-11.723,1.473-12.807-4.757c-0.253-1.454-0.352-3.045-0.458-4.73c-0.37-5.928-0.789-12.647-8.515-14.754
c-4.041-1.102-24.741-5.869-35.305,8.569c-8.508,11.627-14.3,17.061-24.197,16.477c-3.633-0.214-6.282-1.815-9.087-3.511
c-4.725-2.857-9.612-5.81-19.591-2.299c-5.118,1.801-8.796,3.389-11.751,4.665c-6.112,2.639-9.179,3.964-15.784,3.186
c-3.879-0.456-9.64-3.658-15.211-6.754c-8.756-4.866-17.81-9.898-21.488-5.667c-1.574,1.81-2.282,3.822-2.105,5.979
c0.452,5.508,6.492,11.198,12.34,16.038c0.587,0.486,1.16,0.958,1.719,1.418c7.317,6.024,12.151,10.004,12.151,15.818
c0,1.767-0.588,3.287-1.157,4.756c-0.697,1.802-1.356,3.505-0.585,5.198c0.85,1.867,3.415,3.522,8.072,5.206
c5.277,1.908,11.032,1.515,16.598,1.133c9.079-0.621,16.921-1.159,20.802,8.014l0.017,0.034c0.052,0.092,5.184,9.33-0.444,21.995
c-1.274,2.866-2.698,5.633-4.077,8.31c-3.631,7.051-7.09,13.779-7.191,21.139h0.642c0.106-7.219,3.527-13.872,7.118-20.846
c1.382-2.684,2.811-5.46,4.093-8.343c5.636-12.682,0.688-22.072,0.425-22.554c-4.061-9.577-12.499-8.999-21.428-8.387
c-5.5,0.376-11.186,0.766-16.336-1.097c-4.484-1.622-6.933-3.169-7.707-4.87c-0.659-1.448-0.076-2.956,0.6-4.702
c0.562-1.453,1.2-3.1,1.2-4.987c0-6.116-4.927-10.172-12.384-16.312c-0.558-0.459-1.131-0.931-1.717-1.417
c-5.41-4.477-11.676-10.296-12.111-15.597c-0.165-2.007,0.473-3.808,1.95-5.507c3.339-3.839,12.162,1.065,20.694,5.806
c5.885,3.271,11.443,6.359,15.447,6.831c6.776,0.798,9.896-0.55,16.113-3.234c2.946-1.272,6.613-2.855,11.71-4.648
c9.695-3.411,14.449-0.537,19.048,2.243c2.748,1.661,5.589,3.379,9.381,3.602c10.202,0.601,16.104-4.92,24.751-16.738
c10.318-14.1,30.649-9.412,34.621-8.33c7.283,1.987,7.67,8.183,8.044,14.176c0.106,1.703,0.207,3.312,0.466,4.8
c1.188,6.832,6.902,6.115,13.518,5.283l0.531-0.067c2.795-0.35,5.541,0.608,7.731,2.696c2.086,1.988,3.432,4.813,3.274,6.868
c-0.293,3.818,2.102,9.854,2.204,10.109l0.023,0.046c4.704,7.84,10.39,9.783,16.411,11.839c1.302,0.445,2.612,0.892,3.924,1.402
V261.044z"/>
</g>
<g clip-path="url(#SVGID_3_)">
<path fill="rgba(0,0,0,0.16)" d="M217.842,81.811c-2.164,0-2.985-1.704-3.937-3.677c-0.438-0.908-0.891-1.847-1.523-2.767
c-0.813-1.183-3.569-2.474-6.234-3.724c-3.438-1.611-6.685-3.133-6.927-4.806c-0.078-0.535,0.145-1.039,0.663-1.499
c0.048-0.042,1.143-0.971,3.091-0.971c1.639,0,3.373,0.65,5.152,1.931c1.726,1.243,3.705,2.017,5.619,2.766
c3.458,1.353,6.724,2.631,7.643,6.439c0.772,3.197,0.846,4.47,0.307,5.241c-0.499,0.713-1.445,0.82-2.878,0.983l-0.447,0.052
C218.188,81.8,218.011,81.811,217.842,81.811z M202.974,65.007c-1.697,0-2.661,0.805-2.67,0.813
c-0.347,0.309-0.496,0.613-0.451,0.926c0.193,1.331,3.579,2.918,6.566,4.318c2.869,1.344,5.578,2.615,6.49,3.941
c0.66,0.96,1.144,1.965,1.572,2.851c0.928,1.925,1.599,3.315,3.361,3.315c0.144,0,0.296-0.009,0.453-0.028l0.45-0.052
c1.26-0.143,2.092-0.237,2.426-0.714c0.399-0.57,0.289-1.851-0.404-4.724c-0.841-3.484-3.813-4.647-7.254-5.993
c-1.951-0.763-3.968-1.553-5.76-2.842C206.084,65.617,204.477,65.007,202.974,65.007z"/>
</g>
<g clip-path="url(#SVGID_3_)">
<path fill="rgba(0,0,0,0.16)" d="M225.498,143.062c-0.332,0-0.657-0.037-0.965-0.109c-1.691-0.398-3.379-2.171-5.333-4.224
c-2.008-2.109-4.283-4.5-6.875-5.597c-2.68-1.134-4.575-3.437-5.067-6.16c-0.433-2.389,0.308-4.696,2.031-6.328
c3.757-3.56,11.113-11.548,12.064-16.302c0.372-1.86,0.252-3.657,0.146-5.242c-0.172-2.563-0.32-4.776,1.776-5.955
c0.062-0.031,1.089-0.514,2.558-0.514c1.59,0,3.904,0.581,5.898,3.351c3.314,4.603,7.136,6.974,12.227,9.308
c5.105,2.34,5.823,8.205,4.886,12.517c-0.533,2.449-4.197,5.978-7.742,9.39c-3.118,3.002-6.341,6.106-6.973,8.091
C232.81,139.429,228.778,143.062,225.498,143.062z M225.832,93.27c-1.316,0-2.254,0.437-2.264,0.442
c-1.725,0.971-1.602,2.806-1.432,5.345c0.109,1.625,0.232,3.467-0.157,5.41c-0.98,4.902-8.162,12.767-12.251,16.641
c-1.563,1.481-2.234,3.577-1.841,5.749c0.454,2.51,2.207,4.636,4.687,5.685c2.714,1.148,5.039,3.59,7.09,5.745
c1.805,1.897,3.51,3.688,5.017,4.042c0.26,0.061,0.535,0.092,0.818,0.092c3.03,0,6.777-3.425,8.02-7.329
c0.681-2.14,3.818-5.16,7.139-8.358c3.475-3.346,7.069-6.807,7.56-9.065c0.887-4.079,0.233-9.617-4.527-11.799
c-5.186-2.377-9.083-4.798-12.48-9.516C229.374,93.805,227.272,93.27,225.832,93.27z"/>
</g>
<g clip-path="url(#SVGID_3_)">
<path fill="rgba(0,0,0,0.16)" d="M223.564,131.739c-1.878,0-4.593-0.697-6.869-4.015c-0.035-0.055-2.824-4.616,3.383-10.223
c2.249-2.032,3.594-4.246,4.78-6.199c1.762-2.902,3.154-5.194,6.529-5.194c0.469,0,0.977,0.047,1.509,0.138
c4.31,0.739,6.939,1.98,8.272,3.906c0.964,1.393,1.23,3.125,0.813,5.294c-0.582,3.023-3.234,5.018-5.799,6.947
c-1.918,1.442-3.729,2.804-4.625,4.514C230.3,129.308,227.15,131.739,223.564,131.739z M231.387,106.747
c-3.014,0-4.259,2.05-5.982,4.886c-1.209,1.991-2.58,4.247-4.898,6.342c-5.811,5.249-3.304,9.354-3.278,9.395
c1.671,2.436,3.863,3.728,6.335,3.728c3.332,0,6.258-2.258,7.426-4.489c0.962-1.838,2.83-3.242,4.807-4.729
c2.468-1.856,5.02-3.775,5.555-6.556c0.383-1.992,0.151-3.565-0.71-4.81c-1.228-1.774-3.724-2.931-7.853-3.639
C232.292,106.791,231.82,106.747,231.387,106.747z"/>
</g>
<g clip-path="url(#SVGID_3_)">
<path fill="rgba(0,0,0,0.16)" d="M245.644,287.015c-0.3,0-0.613-0.034-0.931-0.1c-3.893-0.815-6.729-4.264-6.898-8.386
c-0.087-2.114,0.723-3.891,2.407-5.281c2.637-2.178,5.019-3.282,7.081-3.282c1.882,0,3.529,0.907,4.897,2.694
c0.176,0.23,0.342,0.444,0.497,0.645c2.395,3.103,2.387,3.293-0.283,6.783c-0.507,0.664-0.967,1.444-1.452,2.27
C249.613,284.647,248.221,287.015,245.644,287.015z M247.303,270.605c-1.91,0-4.155,1.055-6.674,3.135
c-1.521,1.257-2.253,2.859-2.175,4.762c0.157,3.829,2.784,7.031,6.39,7.786c0.275,0.057,0.544,0.087,0.8,0.087
c2.211,0,3.509-2.207,4.765-4.342c0.474-0.806,0.964-1.639,1.496-2.334c1.304-1.705,1.882-2.487,1.909-3.176
c0.028-0.686-0.524-1.402-1.625-2.828c-0.156-0.202-0.322-0.417-0.498-0.648C250.434,271.404,248.999,270.605,247.303,270.605z"
/>
</g>
<g clip-path="url(#SVGID_3_)">
<path fill="rgba(0,0,0,0.16)" d="M210.395,210.24C210.395,210.24,210.395,210.24,210.395,210.24c-1.095,0-2.066-0.521-2.888-1.549
c-0.198-0.192-1.778-1.789-1.745-3.938c0.021-1.378,0.698-2.665,2.014-3.826c4.11-3.626,5.169-4.437,10.616-5.675
c0.767-0.173,1.341,0.048,1.641,0.616c0.888,1.682-0.927,6.184-3.117,9.389C215.643,207.118,213.104,210.24,210.395,210.24z
 M218.877,195.833c-0.103,0-0.218,0.014-0.343,0.043c-5.309,1.207-6.247,1.924-10.334,5.531
c-1.175,1.036-1.779,2.165-1.797,3.356c-0.03,1.965,1.545,3.464,1.561,3.479l0.032,0.035c0.697,0.878,1.504,1.324,2.4,1.324
c1.764,0,3.948-1.715,5.992-4.705c2.31-3.381,3.75-7.46,3.08-8.729C219.345,195.936,219.163,195.833,218.877,195.833z"/>
</g>
<g clip-path="url(#SVGID_3_)">
<path fill="rgba(0,0,0,0.16)" d="M181.237,114.26c-3.672,0-8.527-1.171-11.141-4.457c-1.632-2.052-2.119-4.566-1.448-7.475
c0.033-0.105,2.531-8.009,1.598-12.989c-0.179-0.956-0.445-1.977-0.727-3.058c-0.852-3.273-1.733-6.657-0.298-8.708
c0.693-0.991,1.887-1.573,3.549-1.731c0.295-0.028,0.598-0.042,0.901-0.042c6.581,0,13.179,6.598,15.996,9.415
c3.077,3.078,7.469,10.861,4.2,15.764c-0.83,1.245-1.541,2.688-2.294,4.217c-2.132,4.327-4.336,8.801-9.477,9.046
C181.812,114.253,181.525,114.26,181.237,114.26z M173.67,76.439c-0.283,0-0.565,0.013-0.84,0.039
c-1.487,0.142-2.497,0.62-3.086,1.462c-1.266,1.808-0.422,5.047,0.393,8.179c0.284,1.092,0.553,2.124,0.736,3.102
c0.964,5.141-1.504,12.947-1.61,13.277c-0.618,2.683-0.172,5.016,1.332,6.907c2.473,3.108,7.118,4.216,10.64,4.216
c0.278,0,0.554-0.007,0.828-0.02c4.765-0.227,6.884-4.529,8.934-8.689c0.762-1.547,1.482-3.009,2.335-4.288
c3.063-4.595-1.172-12.008-4.12-14.956C186.453,82.905,179.987,76.439,173.67,76.439z"/>
</g>
<g clip-path="url(#SVGID_3_)">
<path fill="rgba(0,0,0,0.16)" d="M181.603,102.069C181.602,102.069,181.603,102.069,181.603,102.069c-0.772,0-1.545-0.347-2.298-1.032
c-3.653-3.321-0.836-9.397-0.714-9.654c0.438-0.805,1.107-1.222,1.94-1.222c1.679,0,3.812,1.741,5.051,3.461
c0.484,0.671,1.252,1.927,0.961,2.799C186.351,96.999,184.575,102.069,181.603,102.069z M180.531,90.802
c-0.602,0-1.05,0.285-1.37,0.872c-0.019,0.042-2.727,5.888,0.574,8.89c0.632,0.575,1.26,0.866,1.867,0.866
c2.05,0,3.688-3.275,4.334-5.21c0.14-0.42-0.203-1.292-0.873-2.222C183.947,92.447,181.979,90.802,180.531,90.802z"/>
</g>
<g clip-path="url(#SVGID_3_)">
<path fill="rgba(0,0,0,0.16)" d="M253.729,103.728c-1.425-0.522-3.198-1.172-5.285-2.049c-11.558-4.854-16.508-9.659-17.085-16.585
c-0.164-1.968-0.115-4.097-0.068-6.155c0.139-6.053,0.283-12.311-4.754-16.048c-3.796-2.817-8.103-2.75-12.268-2.686
c-3.139,0.048-6.102,0.094-8.464-1.179c-8.078-4.35-18.532-11.19-16.057-20.328c2.437-8.997,0.791-13.943-0.8-18.726
c-0.233-0.7-0.474-1.424-0.696-2.145c-3.556-11.557-1.5-21.428,6.111-29.337l0.024-0.028c0.016-0.02,0.237-0.315,0.591-0.842
h-0.775c-0.169,0.243-0.28,0.394-0.315,0.44c-7.774,8.088-9.876,18.166-6.249,29.955c0.224,0.727,0.466,1.455,0.7,2.159
c1.562,4.693,3.176,9.546,0.79,18.357c-2.894,10.685,11.606,18.493,16.37,21.059c2.51,1.351,5.554,1.304,8.778,1.255
c4.059-0.063,8.255-0.127,11.877,2.56c4.771,3.54,4.631,9.63,4.496,15.52c-0.048,2.076-0.097,4.222,0.07,6.223
c0.6,7.2,5.663,12.161,17.475,17.122c2.102,0.883,3.882,1.535,5.313,2.06c5.868,2.151,6.77,2.482,6.438,9.79
c-0.308,6.775-5.929,13.724-16.707,20.652c-6.108,3.927-9.958,15.671-9.319,23.548c0.094,1.162,0.272,2.546,0.461,4.012
c0.768,5.963,1.82,14.131-1.615,17.257c-1.453,1.323-3.661,1.662-6.563,1.006c-10.824-2.444-10.389-17.362-10.072-28.253
c0.06-2.044,0.116-3.974,0.081-5.574c-0.118-5.417-4.364-7.302-8.859-9.298c-3.863-1.715-7.858-3.489-9.51-7.667
c-2.254-5.701,3.691-12.308,9.44-18.699c3.251-3.613,6.612-7.349,8.466-10.902c1.8-3.449,2.083-6.816,0.844-10.007
c-1.779-4.579-6.738-8.638-13.605-11.135c-4.342-1.579-6.013-3.56-8.128-6.068c-2.456-2.912-5.512-6.537-13.798-11.19
c-14.597-8.198-11.751-13.3-6.586-22.562c0.241-0.433,0.487-0.874,0.736-1.324c1.965-3.552,2.972-7.053,2.992-10.403
c0.013-2.283-0.642-4.485-1.276-6.615c-0.567-1.904-1.154-3.874-1.244-5.869c-0.352-7.734,3.27-14.767,7.103-22.213
c0.872-1.693,1.758-3.426,2.618-5.195h-0.712c-0.815,1.666-1.652,3.303-2.475,4.903c-3.874,7.524-7.533,14.631-7.174,22.535
c0.094,2.073,0.692,4.081,1.27,6.022c0.621,2.085,1.262,4.24,1.25,6.428c-0.019,3.242-0.999,6.64-2.912,10.097
c-0.249,0.45-0.494,0.89-0.735,1.322c-5.189,9.305-8.321,14.922,6.832,23.432c8.185,4.597,11.2,8.172,13.622,11.045
c2.177,2.581,3.896,4.62,8.399,6.257c6.694,2.434,11.515,6.358,13.227,10.766c1.17,3.012,0.896,6.201-0.815,9.479
c-1.817,3.482-5.15,7.187-8.374,10.771c-5.88,6.535-11.959,13.293-9.56,19.362c1.748,4.421,5.865,6.249,9.846,8.016
c4.304,1.911,8.37,3.716,8.479,8.726c0.034,1.584-0.022,3.507-0.081,5.542c-0.306,10.487-0.768,26.336,10.57,28.897
c3.118,0.703,5.518,0.315,7.135-1.157c3.682-3.351,2.605-11.71,1.819-17.812c-0.188-1.458-0.365-2.835-0.458-3.982
c-0.624-7.697,3.104-19.15,9.027-22.958c10.962-7.047,16.682-14.167,17-21.162C260.94,106.371,259.698,105.916,253.729,103.728z"
/>
</g>
<g clip-path="url(#SVGID_3_)">
<path fill="rgba(0,0,0,0.16)" d="M281.973,7.598c0.696-10.678-9.973-13.237-21.268-15.947c-4.652-1.116-9.446-2.269-13.5-4.032h-1.537
c0.003,0.002,0.007,0.003,0.01,0.004c4.359,2.126,9.707,3.409,14.879,4.65c11.025,2.645,21.439,5.143,20.778,15.282
c-0.292,4.474,0.017,8.85,0.29,12.711c0.662,9.377,1.185,16.783-7.04,19.525c-1.736,0.578-3.446,0.872-5.082,0.872
c-7.944,0-13.43-6.897-17.838-12.438c-0.436-0.548-0.864-1.086-1.284-1.605c-1.698-2.098-3.901-3.162-6.545-3.162
c-5.102,0-10.68,4.065-13.184,6.797c-1.124,1.226-5.122,5.226-9.382,5.226c-0.87,0-1.706-0.17-2.485-0.507
c-2.684-1.158-3.982-4.196-4.813-6.713c-1.702-5.155-3.717-14.844,1.902-21.812c1.22-1.513,2.412-3.096,3.674-4.772
c4.227-5.613,8.56-11.363,13.713-14.06h-1.308c-4.828,2.938-8.918,8.366-12.916,13.675c-1.259,1.672-2.448,3.25-3.661,4.755
c-5.81,7.204-3.754,17.135-2.011,22.414c0.873,2.644,2.249,5.84,5.167,7.099c0.86,0.371,1.781,0.559,2.739,0.559
c4.398,0,8.356-3.8,9.854-5.433c2.428-2.649,7.817-6.589,12.713-6.589c2.442,0,4.477,0.984,6.048,2.925
c0.419,0.518,0.845,1.053,1.28,1.601c4.494,5.649,10.087,12.679,18.339,12.679c1.705,0,3.483-0.305,5.285-0.905
c8.696-2.898,8.158-10.523,7.476-20.177C281.992,16.381,281.684,12.028,281.973,7.598z"/>
</g>
<g clip-path="url(#SVGID_3_)">
<path fill="rgba(0,0,0,0.16)" d="M267.526,30.578c-4.597,0-8.219-3.101-12.054-6.384c-2.72-2.328-5.532-4.735-8.777-6.034
c-2.228-0.892-4.459-1.343-6.629-1.343c-6.415,0-9.982,3.75-10.922,4.899c-0.835,1.021-1.907,1.583-3.018,1.583
c-2.111,0-4.62-2.144-5.143-6.851c-0.219-1.972-0.419-4.258-0.026-6.451c0.523-2.917,2.607-6.565,9.561-7.383
c5.275-0.621,7.429-2.786,9.328-4.696c1.659-1.669,3.227-3.245,6.513-3.245c0.858,0,1.787,0.102,2.84,0.313
c8.68,1.736,24.837,4.968,24.479,14.262c-0.092,2.383,0.202,4.962,0.487,7.456c0.747,6.556,1.453,12.748-5.071,13.752
C268.571,30.537,268.044,30.578,267.526,30.578z M240.066,16.177c2.252,0,4.562,0.468,6.867,1.389
c3.344,1.338,6.197,3.78,8.956,6.142c3.743,3.204,7.278,6.23,11.638,6.23c0.485,0,0.98-0.038,1.47-0.114
c5.916-0.91,5.275-6.535,4.533-13.047c-0.287-2.518-0.584-5.122-0.49-7.553c0.296-7.69-11.343-11.086-23.966-13.61
c-1.012-0.202-1.9-0.301-2.715-0.301c-3.02,0-4.428,1.416-6.059,3.056c-1.973,1.984-4.21,4.234-9.707,4.881
c-6.564,0.772-8.521,4.157-9.006,6.86c-0.378,2.108-0.192,4.252,0.032,6.267c0.479,4.316,2.672,6.281,4.506,6.281
c0.929,0,1.802-0.466,2.523-1.348C231.278,18.096,235.547,16.177,240.066,16.177z"/>
</g>
<g clip-path="url(#SVGID_3_)">
<path fill="rgba(0,0,0,0.16)" d="M265.439,18.017c-0.439,0-0.924-0.058-1.441-0.173c-3.085-0.686-4.572-2.429-5.766-3.829
c-1.045-1.225-1.871-2.193-3.408-2.193c-0.209,0-0.431,0.018-0.662,0.053c-0.277,0.042-0.555,0.064-0.827,0.064
c-1.989,0-3.674-1.199-3.919-2.79c-0.272-1.765,1.2-3.335,3.938-4.2l0.042-0.01c0.027-0.005,2.738-0.463,5.733-0.463
c4.543,0,7.308,0.998,8.217,2.967c1.412,3.059,2.235,7.085,0.893,9.182C267.647,17.549,266.706,18.017,265.439,18.017
C265.439,18.017,265.439,18.017,265.439,18.017z M254.824,11.182c1.833,0,2.835,1.174,3.895,2.418
c1.192,1.397,2.543,2.981,5.418,3.62c0.471,0.105,0.909,0.158,1.302,0.158c0,0,0,0,0.001,0c1.034,0,1.794-0.369,2.259-1.096
c1.205-1.884,0.36-5.763-0.935-8.569c-0.99-2.145-4.698-2.595-7.635-2.595c-2.802,0-5.347,0.408-5.603,0.45
c-2.396,0.762-3.696,2.064-3.476,3.486c0.197,1.281,1.61,2.247,3.286,2.247c0.24,0,0.485-0.019,0.73-0.057
C254.327,11.202,254.582,11.182,254.824,11.182z"/>
</g>
<g clip-path="url(#SVGID_3_)">
<path fill="rgba(0,0,0,0.16)" d="M212.58,333.661c0.5-2.523,1.512-5.003,3.292-7.21c1.22-1.513,2.412-3.096,3.674-4.772
c5.79-7.689,11.777-15.641,19.802-15.641c2.043,0,4.173,0.533,6.33,1.585c4.359,2.126,9.707,3.409,14.879,4.65
c11.025,2.645,21.439,5.143,20.778,15.282c-0.135,2.071-0.138,4.117-0.079,6.105h0.64c-0.059-1.976-0.057-4.01,0.078-6.063
c0.696-10.677-9.973-13.237-21.268-15.947c-5.138-1.233-10.452-2.507-14.747-4.603c-2.245-1.095-4.469-1.65-6.61-1.65
c-8.344,0-14.429,8.081-20.313,15.896c-1.259,1.672-2.448,3.25-3.661,4.755c-1.882,2.334-2.936,4.955-3.445,7.612H212.58z"/>
</g>
<g clip-path="url(#SVGID_3_)">
<path fill="rgba(0,0,0,0.16)" d="M221.393,333.661c-0.05-1.176-0.019-2.368,0.193-3.551c0.485-2.703,2.441-6.088,9.006-6.86
c5.497-0.647,7.734-2.896,9.707-4.881c1.631-1.64,3.039-3.056,6.059-3.056c0.815,0,1.703,0.098,2.715,0.301
c7.888,1.577,24.302,4.86,23.966,13.61c-0.055,1.436,0.027,2.933,0.162,4.437h0.642c-0.136-1.501-0.219-2.992-0.165-4.412
c0.358-9.295-15.799-12.527-24.479-14.262c-1.053-0.211-1.982-0.313-2.84-0.313c-3.286,0-4.853,1.576-6.513,3.245
c-1.9,1.91-4.053,4.076-9.328,4.696c-6.954,0.818-9.037,4.466-9.561,7.383c-0.218,1.216-0.251,2.459-0.202,3.664H221.393z"/>
</g>
<g clip-path="url(#SVGID_3_)">
<path fill="rgba(0,0,0,0.16)" d="M327.261,44.209c-7.315,1.739-14.054,0.323-19.049-1.597c-9.24-3.553-15.896-9.863-18.372-13.033
c-5.572-7.132-2.214-16.24-2.177-16.34c4.55-13.13-2.3-20.519-11.787-25.619h-1.402c9.795,5.009,17.141,12.259,12.587,25.401
c-0.036,0.094-3.524,9.532,2.274,16.953c2.517,3.221,9.277,9.633,18.647,13.236c5.059,1.945,11.874,3.382,19.279,1.659V44.209z"
/>
<path fill="rgba(0,0,0,0.16)" d="M282.392,177.228c-0.245,1.978,0.409,3.632,1.899,4.79c4.749,3.482,9.803,5.413,15.423,7.396l0.382,0.163
c2.137,0.909,4.347,1.848,5.202,4.13c0.399,1.13,0.762,2.293,1.113,3.419c1.339,4.287,2.723,8.719,6.348,12.085
c1.617,1.293,3.253,2.275,4.857,3.236c0.328,0.164,0.635,0.328,0.931,0.487c0.857,0.458,1.667,0.891,2.677,1.143
c2.171,0.377,4.159,1.049,6.036,1.882v-0.7c-1.836-0.796-3.782-1.439-5.903-1.807c-0.911-0.228-1.651-0.623-2.508-1.082
c-0.302-0.161-0.613-0.327-0.925-0.482c-1.564-0.938-3.182-1.909-4.747-3.16c-3.483-3.234-4.781-7.391-6.155-11.791
c-0.353-1.131-0.718-2.3-1.123-3.447c-0.954-2.544-3.397-3.583-5.553-4.499l-0.4-0.17c-5.591-1.973-10.599-3.886-15.27-7.311
c-1.636-1.272-1.8-2.987-1.65-4.201c0.149-1.204,0.503-2.408,0.845-3.572c0.488-1.664,0.994-3.384,0.929-5.169
c-0.08-2.188-0.17-4.668,0.614-6.839c0.163-0.329,0.325-0.734,0.483-1.127c0.155-0.387,0.315-0.787,0.459-1.077
c2.157-3.698,4.387-7.258,7.926-10.154c1.082-0.885,2.221-1.18,3.386-0.881c2.001,0.516,3.668,2.678,4.431,4.583
c0.631,1.734,0.953,3.51,1.266,5.228c0.317,1.744,0.645,3.547,1.303,5.355c2.707,5.956,9.301,7.241,15.118,8.375
c1.279,0.249,2.487,0.485,3.638,0.758c1.37,0.428,2.645,0.955,3.836,1.532v-0.704c-1.143-0.54-2.358-1.036-3.667-1.445
c-1.185-0.282-2.399-0.519-3.685-0.77c-5.943-1.158-12.087-2.356-14.648-7.988c-0.631-1.734-0.953-3.51-1.266-5.228
c-0.317-1.744-0.645-3.547-1.298-5.342c-0.765-1.913-2.499-4.363-4.869-4.974c-1.372-0.354-2.703-0.016-3.951,1.005
c-3.622,2.963-5.886,6.575-8.084,10.344c-0.166,0.332-0.331,0.745-0.491,1.144c-0.155,0.387-0.315,0.787-0.469,1.096
l-0.014,0.034c-0.833,2.292-0.741,4.845-0.658,7.098c0.061,1.681-0.408,3.276-0.903,4.965
C282.908,174.742,282.547,175.972,282.392,177.228z"/>
<path fill="rgba(0,0,0,0.16)" d="M202.666,23.016c0.794,9.08,1.545,17.657,10.667,20.13c10.321,2.798,16.234-0.983,20.985-4.021
c0.797-0.51,1.55-0.991,2.305-1.434c2.813-1.652,7.488-1.697,11.635-0.114c4.203,1.605,7.177,4.543,8.372,8.272
c1.074,3.35,4.348,5.846,9.22,7.027c6.577,1.596,14.449,0.376,17.548-2.718c1.431-1.429,2.578-2.997,3.59-4.381
c2.731-3.734,4.534-6.201,9.151-3.558c0.882,0.504,1.914,1.179,3.111,1.96c5.99,3.911,16.013,10.454,28.012,8.577v-0.658
c-11.825,1.884-21.743-4.59-27.662-8.454c-1.204-0.787-2.245-1.466-3.142-1.98c-5.113-2.927-7.263,0.013-9.986,3.736
c-0.998,1.365-2.13,2.912-3.525,4.306c-2.959,2.955-10.56,4.098-16.945,2.549c-4.647-1.127-7.758-3.472-8.761-6.601
c-1.256-3.918-4.364-6.998-8.753-8.674c-4.318-1.649-9.216-1.585-12.187,0.16c-0.765,0.449-1.523,0.934-2.326,1.447
c-4.887,3.125-10.424,6.667-20.473,3.942c-8.691-2.356-9.423-10.717-10.197-19.568c-0.253-2.893-0.515-5.884-1.071-8.675
c-2.127-10.68,6.532-17.908,6.926-18.23c0.528-0.327,6.854-4.263,12.157-8.435h-1.054c-5.298,4.082-11.366,7.846-11.457,7.902
l-0.031,0.021c-0.094,0.075-9.413,7.605-7.169,18.868C202.154,17.166,202.414,20.14,202.666,23.016z"/>
<path fill="rgba(0,0,0,0.16)" d="M321.944,59.952c-0.529-0.246-1.085-0.352-1.622-0.455c-0.389-0.074-0.792-0.151-1.175-0.279
c-2.048-0.732-4.139-1.616-6.162-2.471c-6.568-2.777-13.361-5.648-20.464-4.193c-0.671,0.137-1.359,0.386-2.105,0.758
c-0.542,0.271-1.241,0.653-1.835,1.204c-0.146,0.135-0.289,0.274-0.431,0.417c-0.357,0.358-0.709,0.738-1.048,1.105
c-1.15,1.242-2.34,2.526-3.885,3.134c-0.033,0.013-0.066,0.025-0.098,0.036c-1.758,0.327-3.55,0.389-5.283,0.449
c-3.268,0.113-6.647,0.23-9.853,2.155c-0.124,0.083-0.248,0.171-0.373,0.263c-1.589,1.175-3.363,2.652-4.467,4.687
c-0.366,0.675-0.716,1.427-1.037,2.23c-0.704,1.643-1.113,3.376-1.252,5.3c-0.069,0.96,0.079,1.998,0.442,3.087
c0.323,0.97,0.725,1.978,1.467,2.779c2.181,2.355,5.552,3.132,8.555,3.677c2.696,0.359,5.125,0.697,7.565,1.193
c3.575,0.726,6.756,2.765,9.832,4.737c0.431,0.276,0.862,0.552,1.292,0.824c4.557,2.878,9.829,4.637,15.273,5.089
c1.722,0,3.429-0.037,5.079-0.072c3.364-0.072,6.542-0.14,9.925,0.07c0.97,0.161,2.028,0.242,3.052,0.321
c1.016,0.078,2.066,0.159,3.019,0.318c0.3,0.043,0.604,0.095,0.906,0.144v-0.648c-0.269-0.043-0.541-0.091-0.808-0.129
c-0.974-0.162-2.038-0.244-3.068-0.323c-1.015-0.078-2.066-0.159-3.012-0.317l-0.033-0.004c-3.415-0.213-6.611-0.145-9.995-0.073
c-1.647,0.035-3.35,0.072-5.039,0.073c-5.314-0.443-10.487-2.169-14.957-4.992c-0.43-0.271-0.859-0.547-1.289-0.822
c-3.126-2.004-6.358-4.075-10.05-4.825c-2.46-0.499-4.901-0.839-7.593-1.197c-2.887-0.525-6.137-1.27-8.185-3.48
c-0.659-0.712-1.028-1.644-1.329-2.546c-0.336-1.008-0.474-1.963-0.411-2.838c0.133-1.852,0.526-3.518,1.205-5.102
c0.315-0.787,0.654-1.517,1.008-2.17c1.044-1.926,2.753-3.344,4.285-4.478c0.116-0.086,0.232-0.168,0.334-0.237
c3.052-1.831,6.2-1.94,9.533-2.056c1.764-0.061,3.588-0.124,5.401-0.464l0.042-0.011c0.051-0.017,0.101-0.035,0.151-0.055
c1.681-0.662,2.921-2,4.12-3.294c0.336-0.363,0.683-0.738,1.032-1.088c0.136-0.136,0.273-0.269,0.413-0.399
c0.535-0.496,1.182-0.849,1.686-1.101c0.695-0.347,1.332-0.578,1.947-0.704c6.909-1.416,13.607,1.417,20.086,4.155
c2.031,0.858,4.131,1.746,6.203,2.486c0.43,0.143,0.853,0.224,1.263,0.302c0.529,0.101,1.03,0.197,1.493,0.416l0.044,0.017
c0.143,0.043,2.116,0.612,5.521,0.264v-0.666C324.067,60.49,322.159,60.011,321.944,59.952z"/>
<path fill="rgba(0,0,0,0.16)" d="M327.261,229.658c-0.235-0.148-0.471-0.296-0.711-0.444l-0.235-0.146
c-0.866-0.538-1.776-0.958-2.876-1.421c-0.36-0.152-0.722-0.33-1.071-0.502c-0.595-0.293-1.21-0.597-1.867-0.798
c-0.918-0.282-1.867-0.497-2.756-0.688c-1.293-0.278-2.621-0.427-3.906-0.571c-0.796-0.089-1.619-0.182-2.42-0.303
c-3.911-0.594-9.725-2.637-15.215-8.994c-3.787-4.385-5.944-8.329-7.677-11.498c-2.586-4.728-4.454-8.144-9.712-9.064
c-5.886-1.03-8.86-2.387-9.944-4.537c-0.823-1.633-0.536-3.801,0.877-6.627c2.473-4.946,1.44-8.122,0.244-11.799
c-0.712-2.19-1.449-4.454-1.605-7.422c-0.256-4.854,2.302-6.965,5.842-9.887c2.217-1.83,4.73-3.903,7.113-7.107
c2.687-3.613,3.257-7.093,1.605-9.798c-1.721-2.819-5.712-4.241-9.933-3.537c-8.206,1.367-21.178,13.016-21.6,25.692
c-0.155,4.634,0.35,7.968,0.796,10.91c0.788,5.204,1.308,8.642-2.458,14.963c-3.606,6.053-9.667,10.614-15.014,14.638
c-3.489,2.625-6.785,5.105-9.059,7.716c-4.908,5.635-16.797,14.435-26.666,7.417c-5.823-4.141-2.233-11.892,0.651-18.121
c1.816-3.921,3.25-7.018,2.207-8.669c-2.321-3.675-2.617-9.732-1.02-20.904c1.594-11.161-8.05-18.129-17.215-23.785
c-7.93-4.893-7.69-8.243-7.412-12.122c0.068-0.951,0.139-1.933,0.097-2.979c-0.217-5.425-2.876-8.547-7.704-14.214l-0.052-0.061
c-1.339-1.572-2.562-2.592-3.64-3.492c-2.844-2.374-4.272-3.565-2.902-11.177c2.043-11.35-2.878-30.136-8.572-39.898
c-5.993-10.274-3.849-16.889-0.639-22.507c3.357-5.874,5.245-15.187,2.361-21.623c-1.565-3.49-1.038-9.892-0.321-14.647
c0.51-3.384,2.469-6.725,5.988-10.213c1.148-1.138,2.297-2.425,3.299-3.816h-0.794c-0.913,1.218-1.935,2.35-2.955,3.362
c-3.62,3.588-5.639,7.047-6.17,10.572c-0.73,4.841-1.259,11.373,0.37,15.005c2.797,6.24,0.944,15.31-2.333,21.043
c-3.305,5.785-5.515,12.593,0.642,23.147c5.627,9.646,10.455,28.572,8.495,39.462c-1.436,7.978,0.183,9.329,3.122,11.782
c1.059,0.884,2.26,1.886,3.563,3.416l0.052,0.061c4.889,5.74,7.343,8.621,7.552,13.824c0.04,1.009-0.029,1.974-0.096,2.907
c-0.281,3.917-0.546,7.616,7.714,12.713c11.156,6.884,18.303,13.455,16.918,23.149c-1.641,11.487-1.329,17.469,1.113,21.336
c0.857,1.356-0.582,4.462-2.247,8.058c-2.983,6.444-6.697,14.463-0.441,18.912c4.342,3.088,9.629,3.552,15.288,1.344
c6.171-2.407,10.61-6.999,12.232-8.862c2.23-2.56,5.499-5.02,8.961-7.625c5.395-4.059,11.509-8.66,15.18-14.822
c3.883-6.518,3.32-10.238,2.54-15.387c-0.441-2.914-0.942-6.217-0.789-10.792c0.188-5.655,2.98-11.623,7.859-16.805
c4.124-4.378,9.308-7.627,13.206-8.277c3.964-0.662,7.695,0.641,9.282,3.239c1.507,2.467,0.948,5.692-1.573,9.082
c-2.336,3.142-4.817,5.189-7.006,6.996c-3.546,2.926-6.346,5.237-6.074,10.414c0.161,3.052,0.944,5.461,1.636,7.586
c1.2,3.69,2.148,6.604-0.207,11.315c-1.51,3.02-1.797,5.376-0.876,7.202c1.49,2.956,6.096,4.126,10.405,4.88
c4.954,0.867,6.667,3.999,9.26,8.74c1.748,3.196,3.923,7.174,7.755,11.61c5.618,6.505,11.586,8.598,15.603,9.209
c0.814,0.124,1.643,0.217,2.445,0.307c1.269,0.142,2.581,0.29,3.843,0.561c0.874,0.188,1.807,0.4,2.702,0.675
c0.608,0.187,1.173,0.465,1.772,0.76c0.358,0.176,0.727,0.359,1.105,0.518c1.072,0.452,1.956,0.859,2.787,1.375l0.235,0.146
c0.355,0.22,0.705,0.438,1.048,0.658V229.658z"/>
<path fill="rgba(0,0,0,0.16)" d="M80.599-12.381h-0.642c0.746,8.954-1.201,17.295-5.584,23.207c-3.812,5.142-9.163,8.05-15.477,8.411
c-4.967,0.283-8.987-0.086-12.533-0.412c-8.453-0.777-15.13-1.392-28.15,7.337c-7.936,5.32-16.682,7.21-25.472,5.66v0.627
c2.368,0.402,4.748,0.567,7.131,0.48c6.591-0.24,12.882-2.338,18.698-6.237c12.831-8.602,19.083-8.027,27.736-7.231
c3.569,0.328,7.615,0.7,12.629,0.414c6.509-0.372,12.026-3.37,15.955-8.668C79.353,5.184,81.344-3.292,80.599-12.381z"/>
</g>
<g clip-path="url(#SVGID_3_)">
<path fill="rgba(0,0,0,0.16)" d="M151.192,121.693c-0.979-0.569-1.991-1.157-2.909-1.84c-3.469-2.585-5.487-6.087-6.17-10.708
c-0.787-5.33-2.685-9.052-5.973-11.715c-2.67-2.162-5.83-3.157-8.887-4.119c-1.504-0.473-3.059-0.963-4.542-1.587
c-3.779-1.589-6.752-4.076-8.835-7.393c-1.32-2.103-2.22-4.448-3.091-6.715c-0.955-2.488-1.943-5.06-3.493-7.354
c-5.486-8.117-16.423-14.658-25.887-10.791c-8.52,3.481-17.81,4.379-26.795,5.249l-3.29,0.318
c-4.05,0.388-8.238,0.79-12.315,1.502c-4.065,0.711-8.585,1.968-11.288,5.908c-2.321,3.382-2.787,7.557-3.065,11.544
c-0.024,0.348-0.038,0.704-0.052,1.065c-0.055,1.412-0.112,2.873-0.823,4.037c-0.709,1.159-1.976,2.03-3.767,2.587
c-1.548,0.482-3.056,0.523-4.653,0.567c-0.77,0.021-1.565,0.043-2.364,0.119c-5.959,0.564-10.362,0.061-14.723-1.685
c-0.937-0.375-1.868-0.85-2.853-1.353c-0.878-0.448-1.77-0.903-2.679-1.288v0.698c0.806,0.354,1.603,0.76,2.388,1.161
c0.955,0.487,1.941,0.99,2.906,1.377c4.403,1.763,9.036,2.296,15.022,1.728c0.777-0.074,1.562-0.095,2.321-0.116
c1.57-0.043,3.194-0.087,4.826-0.596c1.944-0.605,3.331-1.569,4.123-2.865c0.798-1.306,0.859-2.851,0.917-4.346
c0.014-0.354,0.027-0.704,0.051-1.045c0.272-3.898,0.725-7.977,2.955-11.227c2.569-3.744,6.937-4.952,10.87-5.639
c4.052-0.708,8.228-1.109,12.266-1.496l3.291-0.318c9.03-0.874,18.368-1.777,26.975-5.293c9.152-3.738,19.77,2.649,25.115,10.557
c1.509,2.233,2.484,4.771,3.426,7.225c0.882,2.296,1.793,4.671,3.147,6.826c2.154,3.431,5.226,6.003,9.129,7.643
c1.51,0.635,3.08,1.129,4.598,1.607c3.138,0.988,6.101,1.921,8.676,4.007c3.155,2.556,4.98,6.15,5.742,11.312
c0.709,4.797,2.809,8.436,6.421,11.127c0.947,0.706,1.975,1.303,2.97,1.881c1.037,0.602,2.108,1.225,3.067,1.961
c0.777,0.597,1.554,1.302,2.309,2.094c1.504,1.579,2.221,3.711,2.677,5.391c1.071,3.948,3.673,11.194,9.067,15.374
c1.573,1.219,3.194,2.396,4.761,3.534c6.019,4.37,11.703,8.497,12.302,13.436c0.33,2.724-0.545,5.56-1.392,8.302
c-1.128,3.656-2.195,7.11-0.501,10.158c0.227,0.409,0.482,0.852,0.754,1.326c3.098,5.39,8.864,15.423,2.72,26.701
c-2.835,5.203-9.183,7.526-14.01,8.559c-10.489,2.244-23.653,0.546-29.346-3.786c-10.125-7.704-17.651-10.321-25.167-8.747
c-8.036,1.682-18.693-4.18-23.231-10.494c-2.805-3.903-7.632-4.894-11.891-5.767c-2.695-0.553-5.24-1.075-7.124-2.234
c-3.101-1.908-11.013,1.039-16.87,4.992c-5.475,3.695-8.314,7.582-7.791,10.667c0.176,1.036,0.588,1.758,1.26,2.205
c1.502,0.999,4.004,0.417,7.173-0.318c5.208-1.21,12.34-2.867,18.418,2.267c5.537,4.677,8.592,8.516,11.287,11.903
c2.751,3.456,5.126,6.441,9.355,9.343c4.684,3.215,5.591,8.455,4.879,12.287c-0.696,3.74-2.945,6.585-5.732,7.248
c-6.607,1.573-8.791,3.689-10.158,9.842c-1.215,5.471-4.168,6.466-10.615,7.433c-0.36,0.054-0.725,0.106-1.092,0.159
c-6.232,0.889-13.295,1.897-14.22,14.534c-0.204,2.787-0.192,5.664-0.181,8.447c0.042,10.315,0.082,20.057-10.791,23.27
c-10.904,3.222-16.997-13.438-21.029-24.461c-1.088-2.975-2.028-5.544-2.912-7.372c-7.425-15.358-15.862-18.24-23.305-20.783
c-3.796-1.297-7.455-2.549-10.803-5.305v0.83c3.305,2.587,6.887,3.813,10.597,5.081c7.683,2.624,15.627,5.338,22.936,20.456
c0.87,1.799,1.804,4.354,2.887,7.313c3.752,10.257,9.253,25.294,18.897,25.294c0.932,0,1.903-0.14,2.915-0.439
c11.333-3.348,11.293-13.324,11.25-23.886c-0.011-2.771-0.023-5.636,0.179-8.397c0.887-12.123,7.386-13.051,13.672-13.948
c0.369-0.052,0.735-0.105,1.096-0.159c6.598-0.99,9.849-2.094,11.145-7.927c1.221-5.496,2.868-7.736,9.682-9.358
c3.032-0.722,5.471-3.766,6.213-7.754c0.75-4.03-0.209-9.543-5.145-12.932c-4.15-2.848-6.498-5.798-9.216-9.214
c-2.714-3.41-5.79-7.276-11.375-11.993c-6.324-5.342-13.637-3.642-18.976-2.402c-2.899,0.674-5.402,1.255-6.674,0.409
c-0.518-0.344-0.839-0.926-0.984-1.779c-0.472-2.784,2.338-6.533,7.518-10.029c6.274-4.233,13.682-6.513,16.177-4.978
c1.98,1.218,4.579,1.752,7.331,2.316c4.346,0.892,8.84,1.814,11.5,5.514c4.653,6.474,15.605,12.48,23.882,10.747
c7.315-1.53,14.687,1.05,24.649,8.63c5.821,4.429,19.219,6.18,29.867,3.902c4.958-1.061,11.488-3.462,14.438-8.879
c6.315-11.593,0.433-21.827-2.727-27.326c-0.271-0.472-0.524-0.912-0.75-1.318c-1.561-2.81-0.534-6.137,0.553-9.659
c0.866-2.806,1.762-5.708,1.416-8.567c-0.632-5.216-6.427-9.423-12.562-13.877c-1.563-1.135-3.179-2.308-4.745-3.522
c-5.247-4.066-7.792-11.166-8.842-15.036c-0.476-1.753-1.227-3.981-2.831-5.665c-0.778-0.817-1.579-1.543-2.382-2.161
C153.336,122.938,152.246,122.305,151.192,121.693z"/>
<path fill="rgba(0,0,0,0.16)" d="M-7.26,68.313c1.035,0.116,2.11,0.214,3.237,0.294c0.86,0.061,1.573,0.16,2.262,0.256
c1.782,0.248,3.465,0.481,7.205-0.012c7.795-1.029,11.794-2.305,16.029-3.656c3.32-1.06,6.754-2.155,12.341-3.305
c6.803-1.401,13.314-2.028,18.546-2.532c4.983-0.48,8.919-0.859,11.333-1.696c2.371-0.822,4.7-1.848,6.953-2.841
c2.039-0.898,4.148-1.828,6.274-2.598c11.609-4.209,22.545-2.929,29.253,3.424c2.491,2.359,4.47,5.458,6.228,9.752
c0.495,1.208,0.94,2.468,1.371,3.686c0.746,2.111,1.518,4.294,2.58,6.317c2.722,5.181,6.875,9.432,11.695,11.97
c2.485,1.309,5.19,2.06,8.039,2.232c1.553,0.094,3.165,0.367,5.226,0.887c0.663,0.167,1.341,0.368,2.059,0.58
c2.474,0.732,5.033,1.488,7.484,1.045c4.352-0.788,4.175-6.45,4.117-8.311c-0.18-5.773-2.506-10.448-5.943-15.691
c-4.082-6.228-6.242-11.586-7.006-17.371c-0.975-7.39,0.027-14.88,0.996-22.124c0.552-4.127,1.123-8.395,1.325-12.607
c0.051-1.067,0.115-2.147,0.18-3.237c0.439-7.405,0.892-15.062-2.369-21.572c-0.356-0.711-1.091-2.168-2.353-3.584h-0.879
c1.458,1.479,2.282,3.117,2.66,3.871c3.184,6.357,2.736,13.926,2.302,21.247c-0.065,1.092-0.129,2.175-0.18,3.244
c-0.201,4.185-0.77,8.439-1.32,12.553c-0.974,7.286-1.982,14.819-0.996,22.293c0.777,5.886,2.968,11.325,7.105,17.638
c3.474,5.3,5.663,9.718,5.839,15.36c0.093,2.992-0.178,7.042-3.592,7.661c-2.301,0.417-4.785-0.318-7.188-1.029
c-0.724-0.214-1.408-0.416-2.084-0.587c-2.101-0.529-3.749-0.808-5.344-0.905c-2.797-0.169-5.341-0.876-7.779-2.16
c-4.706-2.478-8.764-6.633-11.426-11.701c-1.041-1.982-1.805-4.143-2.544-6.233c-0.433-1.225-0.881-2.493-1.382-3.715
c-1.794-4.382-3.822-7.552-6.38-9.975c-6.887-6.523-18.069-7.855-29.911-3.561c-2.146,0.778-4.265,1.711-6.313,2.614
c-2.241,0.987-4.558,2.008-6.905,2.822c-2.342,0.812-6.244,1.188-11.185,1.664c-5.247,0.506-11.777,1.135-18.614,2.542
c-5.62,1.157-9.07,2.258-12.406,3.322c-4.389,1.4-8.18,2.61-15.918,3.632c-3.653,0.482-5.295,0.255-7.033,0.013
c-0.7-0.097-1.423-0.198-2.305-0.26c-1.143-0.082-2.234-0.181-3.282-0.3V68.313z"/>
<path fill="rgba(0,0,0,0.16)" d="M-2.856,267.862c10.934,0.361,18.766,4.889,24.022,26.317c4.842,19.741,17.703,34.927,27.34,38.204
c3.594,1.222,6.765,0.851,9.169-1.073c9.68-7.744,11.126-20.234,11.126-26.99c0-6.622,0.948-14.284,0.954-14.336
c0.028-0.139,2.946-13.949,11.643-17.366l0.369-0.145c9.177-3.604,18.666-7.332,20.611-12.194
c1.219-3.048,8.177-10.162,15.429-12.174c3.788-1.051,7.045-0.57,9.681,1.43c5.097,3.866,4.649,9.608,4.216,15.162
c-0.331,4.245-0.644,8.254,1.831,10.729c5.489,5.489,22.532,8.773,31.992,6.162c4.385-1.209,8.648-0.146,11.127,2.774
c2.811,3.312,2.933,8.438,0.337,14.063c-5.695,12.339-8.507,18.608-8.545,18.696c-0.031,0.087-2.827,8.289-0.512,16.539h0.668
c-2.349-8.105,0.418-16.241,0.438-16.303c0.028-0.062,2.839-6.328,8.533-18.664c2.705-5.862,2.548-11.236-0.43-14.746
c-2.642-3.113-7.158-4.253-11.785-2.977c-9.292,2.564-26.003-0.632-31.369-5.998c-2.267-2.267-1.965-6.133-1.646-10.227
c0.426-5.458,0.908-11.644-4.467-15.722c-2.804-2.127-6.248-2.644-10.239-1.537c-7.557,2.097-14.558,9.319-15.852,12.553
c-1.842,4.606-11.622,8.447-20.251,11.836l-0.369,0.145c-9.018,3.543-11.917,17.252-12.04,17.858
c-0.01,0.077-0.962,7.777-0.962,14.44c0,6.641-1.414,18.914-10.885,26.491c-2.225,1.78-5.186,2.115-8.563,0.966
c-9.473-3.221-22.135-18.222-26.925-37.751c-2.51-10.235-5.81-17.22-10.086-21.356c-3.679-3.557-8.162-5.238-14.536-5.448
c-0.46-0.015-0.925-0.026-1.393-0.037c-1.01-0.024-2.029-0.049-3.033-0.117v0.643c1.001,0.066,2.013,0.091,3.018,0.114
C-3.778,267.836-3.314,267.847-2.856,267.862z"/>
<path fill="rgba(0,0,0,0.16)" d="M194.934,333.661c-0.507-8.977,2.921-15.824,10.269-20.444c0.18-0.133,18.107-13.451,24.179-26.569
c5.197-11.226,4.762-18.71-1.332-22.878c-3.042-2.082-6.127-5.502-5.712-8.092c0.223-1.393,1.457-2.424,3.667-3.065
c6.903-2.004,7.605-0.84,10.558,4.059c0.179,0.298,0.367,0.608,0.563,0.931c3.315,5.447,6.286,8.447,12.477,8.705
c5.644,0.235,12.674,2.33,14.114,10.973c0.178,1.067,0.333,2.163,0.484,3.223c1.117,7.868,2.273,16.004,13.337,23.38
c7.494,4.996,19.866,14.667,18.528,23.3c-0.212,1.366-0.97,2.535-1.773,3.773c-0.376,0.579-0.764,1.178-1.09,1.796
c-0.147,0.279-0.293,0.582-0.433,0.907h0.699c0.096-0.208,0.196-0.411,0.3-0.609c0.312-0.593,0.692-1.179,1.06-1.746
c0.804-1.24,1.636-2.522,1.869-4.023c1.393-8.985-11.184-18.85-18.805-23.931c-10.826-7.217-11.961-15.209-13.059-22.938
c-0.151-1.064-0.307-2.164-0.486-3.238c-1.511-9.068-8.838-11.263-14.719-11.508c-5.904-0.246-8.758-3.142-11.958-8.399
c-0.196-0.322-0.383-0.632-0.562-0.928c-2.924-4.852-3.911-6.485-11.285-4.343c-2.468,0.716-3.854,1.92-4.12,3.578
c-0.461,2.881,2.672,6.456,5.983,8.722c5.793,3.963,6.156,11.186,1.112,22.082c-6.004,12.968-23.8,26.19-23.959,26.309
c-7.552,4.747-11.078,11.774-10.557,20.972H194.934z"/>
<path fill="rgba(0,0,0,0.16)" d="M121.863-12.381c-0.243,0.154-0.485,0.308-0.73,0.472c-6.633,4.432-6.904,10.931-7.166,17.215
c-0.252,6.024-0.512,12.253-6.295,16.88c-5.73,4.583-9.971,2.827-14.461,0.968c-4.568-1.891-9.291-3.847-15.319,1.931
c-9.636,9.234-21.805,11.793-36.167,7.603c-11.549-3.368-23.905,6.696-24.007,6.782C8.692,45.708-0.286,45.744-7.26,44.035v0.658
c7.093,1.707,16.194,1.626,25.364-4.713c0.121-0.1,12.216-9.951,23.442-6.677c14.598,4.258,26.976,1.648,36.789-7.756
c5.727-5.488,10.052-3.697,14.632-1.801c4.464,1.848,9.081,3.76,15.105-1.06c6.011-4.809,6.277-11.186,6.535-17.353
c0.267-6.407,0.52-12.458,6.883-16.71c0.54-0.361,1.072-0.692,1.598-1.004H121.863z"/>
<path fill="rgba(0,0,0,0.16)" d="M-7.26,51.283c7.09,2.441,15.67,3.043,24.976-2.303c0.534-0.221,12.124-4.93,21.149-2.675
c9.197,2.3,28.15-1.2,37.892-8.994c8.511-6.809,22.863,0.487,33.343,5.816c0.872,0.443,1.713,0.871,2.518,1.273
c5.508,2.755,8.769,3.326,10.902,1.91c2.385-1.582,3.225-5.746,2.725-13.501c-0.172-2.671-0.52-5.99-0.888-9.503
c-1.179-11.265-2.795-26.692,1.063-28.651c1.184-0.601,2.921,0.123,5.161,2.151c3.887,3.517,3.092,13.916,2.171,25.957
c-0.82,10.722-1.749,22.876,0.63,32.274c1.656,6.542,5.146,11.502,7.695,15.123c2.017,2.865,3.609,5.128,3.219,6.677
c-0.174,0.689-0.747,1.268-1.752,1.771c-3.043,1.522-6.948,1.032-10.994-1.38c-3.847-2.293-7.466-6.132-9.927-10.534
c-5.887-10.525-12.696-18.157-20.238-22.682c-8.295-4.977-21.463-4.082-33.549,2.278c-11.705,6.161-19.74,5.431-26.196,4.843
c-7.402-0.673-16.054,1.342-25.022,5.826c-9.241,4.62-15.283,3.099-15.672,2.993C1.415,59.706,0.86,59.6,0.322,59.498
c-0.389-0.074-0.792-0.151-1.175-0.279c-2.048-0.732-4.14-1.616-6.162-2.471c-0.082-0.035-0.164-0.069-0.246-0.104v0.695
c2.03,0.858,4.128,1.745,6.199,2.484c0.43,0.143,0.854,0.224,1.263,0.303c0.53,0.102,1.03,0.197,1.493,0.416l0.044,0.017
c0.257,0.078,6.405,1.852,16.163-3.028c8.862-4.431,17.394-6.425,24.678-5.761c6.54,0.595,14.68,1.335,26.552-4.914
c11.892-6.259,24.814-7.16,32.921-2.296c7.34,4.404,14.259,12.166,20.009,22.445c3.963,7.084,11.168,13.134,17.611,13.134
c1.438,0,2.838-0.302,4.155-0.96c1.182-0.591,1.865-1.307,2.087-2.187c0.462-1.833-1.123-4.084-3.316-7.201
c-2.52-3.581-5.971-8.485-7.598-14.912c-2.353-9.297-1.428-21.395-0.612-32.068c0.933-12.208,1.739-22.752-2.38-26.48
c-2.492-2.256-4.416-2.99-5.88-2.247c-4.25,2.158-2.741,16.571-1.41,29.288c0.367,3.507,0.714,6.819,0.885,9.478
c0.484,7.499-0.269,11.486-2.44,12.926c-1.891,1.255-5.057,0.653-10.262-1.949c-0.803-0.402-1.643-0.829-2.514-1.271
c-10.635-5.407-25.199-12.812-34.033-5.745c-9.605,7.684-28.279,11.138-37.337,8.873c-9.397-2.348-21.451,2.662-21.571,2.714
l-0.035,0.017c-9.182,5.282-17.668,4.632-24.673,2.18V51.283z"/>
<path fill="rgba(0,0,0,0.16)" d="M178.219,187.439c-0.651-2.226-1.323-4.527-1.583-6.691c-0.35-2.1-0.21-4.349-0.075-6.523
c0.109-1.752,0.222-3.564,0.078-5.289c-0.649-8.432-9.179-11.798-16.959-12.135c-2.248,0-4.529,0.109-6.735,0.214
c-4.39,0.209-8.93,0.426-13.389-0.212c-2.757-0.306-5.268-0.908-7.899-1.893c-0.397-0.227-0.783-0.443-1.162-0.655
c-1.763-0.987-3.286-1.841-4.831-3.125c-1.103-1.242-2.142-2.477-3.176-3.776c-0.245-0.308-0.489-0.616-0.733-0.925
c-2.39-3.022-4.862-6.147-8.098-8.352c-0.869-0.592-1.774-1.166-2.65-1.721c-3.515-2.228-6.834-4.332-8.661-7.876
c-0.153-0.297-0.214-0.642-0.279-1.007l-0.039-0.217c-0.073-0.388-0.27-0.708-0.459-1.018c-0.06-0.097-0.119-0.194-0.174-0.292
c-0.359-0.646-0.756-1.261-1.213-1.88c-2.677-3.62-6.477-5.623-10.163-5.357c-0.534,0.038-1.04,0.159-1.519,0.365
c-2.194,1.097-3.582,3.506-4.011,6.943c-0.245,1.227-0.692,2.473-1.326,3.704c-0.386,0.748-0.828,1.275-1.353,1.612
c-0.645,0.413-1.398,0.635-2.05,0.798c-3.484,0.868-6.898,1.695-10.361,2.273c-6.485,0.882-11.837-2.918-17.012-6.595
c-0.327-0.232-0.653-0.464-0.978-0.693c-1.067-1.064-2.135-1.912-3.371-2.892c-0.257-0.204-0.522-0.414-0.783-0.622
c-4.653-4.136-8.675-8.688-12.934-13.508c-0.998-1.129-2.007-2.272-3.022-3.405c-0.911-1.215-2.461-2.528-4.273-3.614
c-0.963-0.482-1.895-1.017-2.795-1.534c-1.534-0.882-2.983-1.714-4.593-2.318c-4.539-1.746-8.977-2.936-13.182-3.537
c-0.974-0.162-2.039-0.244-3.068-0.323c-1.016-0.078-2.066-0.159-3.012-0.317L0.34,95.041c-2.6-0.163-5.074-0.161-7.6-0.12v0.64
c2.511-0.042,4.969-0.043,7.545,0.117c0.969,0.16,2.028,0.242,3.051,0.321c1.016,0.078,2.066,0.159,3.019,0.318
c4.165,0.595,8.556,1.773,13.053,3.503c1.564,0.587,2.991,1.407,4.502,2.275c0.908,0.522,1.848,1.062,2.806,1.54
c1.722,1.033,3.205,2.286,4.086,3.459c1.032,1.153,2.04,2.295,3.037,3.423c4.272,4.835,8.307,9.402,13.001,13.574
c0.275,0.22,0.54,0.43,0.798,0.635c1.228,0.973,2.288,1.814,3.336,2.862l0.042,0.035c0.332,0.234,0.665,0.471,0.999,0.708
c5.277,3.749,10.733,7.627,17.478,6.706c3.495-0.582,6.923-1.413,10.42-2.284c0.702-0.175,1.518-0.416,2.24-0.88
c0.622-0.399,1.137-1.006,1.576-1.857c0.662-1.283,1.127-2.585,1.388-3.894c0.282-2.258,1.147-5.214,3.649-6.466
c0.403-0.172,0.827-0.273,1.296-0.307c3.471-0.246,7.058,1.657,9.603,5.099c0.441,0.597,0.823,1.189,1.169,1.81
c0.059,0.107,0.124,0.212,0.188,0.317c0.167,0.272,0.325,0.528,0.376,0.801l0.038,0.211c0.07,0.396,0.143,0.805,0.34,1.188
c1.906,3.699,5.455,5.948,8.887,8.124c0.871,0.552,1.772,1.123,2.632,1.709c3.155,2.15,5.596,5.235,7.957,8.22
c0.245,0.309,0.489,0.618,0.735,0.927c1.046,1.314,2.098,2.564,3.214,3.82l0.034,0.033c1.597,1.33,3.224,2.242,4.946,3.207
c0.384,0.215,0.777,0.435,1.18,0.665l0.046,0.022c2.691,1.009,5.258,1.625,8.067,1.937c4.511,0.645,9.081,0.427,13.5,0.216
c2.199-0.105,4.472-0.213,6.691-0.213c7.493,0.326,15.718,3.53,16.335,11.547c0.14,1.68,0.028,3.468-0.079,5.198
c-0.137,2.211-0.28,4.496,0.08,6.654c0.264,2.202,0.944,4.53,1.602,6.78c1.817,6.216,3.532,12.087-2.102,16.595l-5.743,3.829
c-1.037,0.514-2.307,0.82-3.429,1.089c-0.223,0.054-0.44,0.106-0.675,0.166c-8.972,3.084-18.784,1.265-29.15-5.398
c-1.961-1.401-3.98-2.608-6.545-3.915c-1.535-0.782-3.235-0.381-4.878,0.006c-0.516,0.122-1.05,0.247-1.561,0.331
c-5.377,0.873-9.276,0.084-12.281-2.492c-1.538-1.231-2.497-3.139-3.422-4.989c-0.871-2.879-3.053-6.448-6.58-7.858l-0.031-0.011
c-0.312-0.089-0.624-0.184-0.937-0.284c-3.536-1.129-7.107-3.069-10.916-5.93c-3.124-2.347-6.201-3.247-9.418-2.752
c-2.805,0.561-5.116,1.603-7.562,2.707c-0.378,0.171-0.759,0.342-1.117,0.503c-1.277,0.426-2.414,0.562-3.617,0.706
c-0.568,0.068-1.155,0.139-1.774,0.242c-1.895,0.316-3.441,0.316-5.315,0.004c-4.12-0.951-8.379-1.935-12.608-1.283
c-2.453,0.433-4.87,1.132-7.206,1.809c-2.85,0.825-5.798,1.678-8.759,2.027c-3.062,0.204-5.522,0.103-7.744-0.316
c-4.147-0.784-7.815-3.107-11.216-5.42c-2.518-1.712-5.605-3.623-9.425-4.816c-1.185-0.282-2.399-0.519-3.685-0.769
c-2.444-0.476-4.921-0.96-7.17-1.755v0.662c2.275,0.79,4.723,1.268,7.047,1.721c1.279,0.249,2.487,0.485,3.638,0.758
c3.719,1.162,6.755,3.042,9.235,4.728c3.457,2.351,7.189,4.713,11.457,5.52c2.276,0.43,4.788,0.533,7.921,0.324
c3.03-0.357,6.003-1.217,8.878-2.049c2.321-0.672,4.721-1.366,7.133-1.792c4.099-0.629,8.299,0.338,12.379,1.279
c1.943,0.324,3.602,0.324,5.545,0c0.605-0.101,1.185-0.17,1.745-0.238c1.237-0.148,2.405-0.288,3.772-0.746
c0.388-0.173,0.77-0.345,1.149-0.516c2.412-1.088,4.69-2.116,7.41-2.66c3.025-0.464,5.943,0.396,8.922,2.634
c3.867,2.905,7.5,4.876,11.106,6.028c0.314,0.1,0.626,0.196,0.939,0.285c3.318,1.334,5.377,4.732,6.198,7.469l0.02,0.051
c0.959,1.919,1.951,3.903,3.598,5.22c4.14,3.548,9.283,3.2,12.792,2.631c0.533-0.087,1.078-0.215,1.605-0.34
c1.603-0.377,3.115-0.733,4.441-0.059c2.536,1.292,4.53,2.484,6.477,3.874c10.552,6.783,20.551,8.625,29.691,5.481
c0.207-0.052,0.422-0.103,0.643-0.156c1.161-0.279,2.477-0.595,3.582-1.148l5.817-3.876
C181.871,199.937,180.014,193.583,178.219,187.439z"/>
<path fill="rgba(0,0,0,0.16)" d="M80.661,223.979c-1.01-0.161-2.054-0.327-3.017-0.586c-1.875-0.505-3.249-1.537-4.078-3.056
c-0.113-0.227-0.213-0.468-0.305-0.739c-0.659-1.949-1.48-4.376-3.61-5.272c-1.675-0.704-3.641-0.566-6.01,0.421
c-2.503,1.043-4.58,2.834-6.589,4.567c-1.19,1.027-2.421,2.088-3.724,2.978c-10.488,7.166-24.517,4.555-33.338,0.144
c-1.754-0.923-3.459-1.973-5.108-2.988c-4.061-2.5-8.261-5.085-13.524-5.999c-0.911-0.228-1.651-0.623-2.508-1.081
c-0.301-0.161-0.613-0.328-0.925-0.483c-1.564-0.938-3.182-1.909-4.747-3.16c-0.152-0.141-0.294-0.286-0.438-0.431v0.895
c0.007,0.007,0.013,0.014,0.021,0.02c1.617,1.293,3.253,2.275,4.857,3.236c0.328,0.164,0.635,0.328,0.931,0.487
c0.857,0.458,1.667,0.891,2.677,1.143c5.165,0.898,9.311,3.451,13.32,5.919c1.658,1.021,3.372,2.076,5.151,3.012
c5.341,2.671,11.462,4.214,17.234,4.345c6.412,0.148,12.206-1.42,16.758-4.53c1.332-0.91,2.577-1.984,3.781-3.022
c1.971-1.7,4.009-3.458,6.418-4.461c2.204-0.918,4.008-1.055,5.516-0.422c1.865,0.784,2.602,2.964,3.252,4.887
c0.101,0.299,0.212,0.567,0.344,0.831c0.921,1.689,2.428,2.825,4.478,3.378c0.996,0.268,2.057,0.437,3.083,0.6
c2.538,0.404,4.935,0.785,6.518,2.542c3.2,3.55,4.14,8.893,2.246,12.682c-1.068,1.78-2.644,2.946-4.313,4.181
c-1.247,0.923-2.537,1.877-3.655,3.135c-1.157,1.35-1.87,2.945-2.56,4.488c-0.129,0.287-0.257,0.576-0.39,0.864
c-1.705,3.717-6.05,5.247-10.075,6.254c-2.845,0.711-5.602,1.506-8.048,3.387l-0.031,0.028c-1.296,1.296-2.279,2.607-3.245,3.897
c-1.611,2.578-2.252,5.088-2.924,8.117c-0.433,2.595-0.287,5.216-0.146,7.75c0.069,1.248,0.141,2.539,0.142,3.805
c-0.295,2.63-1.019,4.414-2.215,5.456c-1.171,1.021-2.872,0.768-4.073,0.191c-4.799-2.304-7.077-7.732-9.279-12.981
c-0.588-1.4-1.143-2.723-1.758-4.012c-0.47-0.783-0.791-1.506-1.102-2.205c-0.318-0.717-0.648-1.458-1.138-2.275
c-0.697-1.161-1.391-1.989-2.196-2.948c-0.322-0.383-0.662-0.789-1.034-1.254c-2.414-2.853-5.366-4.921-8.491-7.111
c-1.436-1.006-2.921-2.047-4.349-3.168c-1.895-1.579-3.106-3.779-3.412-6.22c-0.379-1.802-0.562-3.625-0.739-5.388
c-0.427-4.256-0.83-8.275-3.828-11.732c-1.185-1.185-2.512-2.008-3.917-2.88l-0.235-0.146c-0.865-0.538-1.775-0.957-2.875-1.421
c-0.359-0.152-0.719-0.33-1.068-0.502c-0.584-0.288-1.187-0.587-1.832-0.787c-0.935-0.289-1.905-0.51-2.814-0.705
c-1.287-0.276-2.609-0.424-3.888-0.567c-0.362-0.041-0.73-0.082-1.099-0.127v0.644c0.345,0.041,0.689,0.081,1.027,0.118
c1.263,0.142,2.569,0.287,3.825,0.557c0.895,0.192,1.849,0.409,2.76,0.69c0.595,0.184,1.15,0.459,1.737,0.749
c0.357,0.177,0.726,0.359,1.103,0.518c1.072,0.453,1.957,0.86,2.786,1.376l0.235,0.146c1.372,0.852,2.669,1.656,3.786,2.772
c2.849,3.287,3.242,7.209,3.659,11.36c0.178,1.78,0.363,3.62,0.745,5.43c0.322,2.576,1.612,4.922,3.64,6.612
c1.448,1.138,2.941,2.183,4.384,3.195c3.09,2.165,6.009,4.21,8.364,6.993c0.37,0.462,0.713,0.872,1.038,1.259
c0.787,0.938,1.467,1.748,2.138,2.866c0.47,0.783,0.791,1.506,1.102,2.205c0.319,0.717,0.648,1.458,1.124,2.248
c0.595,1.249,1.147,2.565,1.732,3.958c2.249,5.359,4.574,10.901,9.593,13.31c1.385,0.665,3.365,0.94,4.77-0.285
c1.325-1.154,2.121-3.079,2.433-5.886l0.002-0.035c0-1.289-0.073-2.595-0.143-3.858c-0.139-2.5-0.283-5.084,0.135-7.593
c0.656-2.952,1.282-5.408,2.824-7.878c0.933-1.245,1.899-2.532,3.155-3.791c2.345-1.797,5.026-2.569,7.797-3.262
c4.173-1.044,8.683-2.645,10.501-6.608c0.133-0.29,0.263-0.581,0.392-0.87c0.702-1.57,1.365-3.054,2.458-4.329
c1.07-1.204,2.333-2.138,3.554-3.042c1.722-1.274,3.348-2.477,4.493-4.388c2.018-4.037,1.038-9.68-2.332-13.418
C85.819,224.8,83.197,224.382,80.661,223.979z"/>
</g>
<g clip-path="url(#SVGID_3_)">
<path fill="rgba(0,0,0,0.16)" d="M68.043-12.381c-0.482,6.885-2.704,16.739-10.769,23.192c-2.225,1.78-5.186,2.114-8.563,0.966
C41.59,9.355,32.667,0.275,26.64-12.381h-0.699C32.054,0.577,41.204,9.9,48.506,12.383c3.594,1.222,6.765,0.851,9.169-1.072
C65.94,4.698,68.2-5.372,68.685-12.381H68.043z"/>
<path fill="rgba(0,0,0,0.16)" d="M251.354,93.993c-0.584-0.151-1.143-0.296-1.673-0.436c-3.539-0.937-6.907-4.017-8.789-8.039
c-1.656-3.539-1.876-7.135-0.602-9.863c0.174-0.373,0.361-0.769,0.558-1.187c3.161-6.706,9.045-19.188,4.088-24.97
c-5.282-6.163-14.117-2.482-21.913,0.766c-8.021,3.342-18.237,4.123-22.855-3.707c-2.679-4.543-2.195-7.617-1.681-10.872
c0.401-2.544,0.816-5.174-0.428-8.492c-5.938-15.833-3.541-27.26,7.143-33.977c0.072-0.053,2.964-2.202,6.801-5.598h-0.966
c-3.533,3.09-6.135,5.024-6.195,5.069c-10.958,6.888-13.442,18.573-7.383,34.73c1.185,3.159,0.801,5.592,0.395,8.167
c-0.508,3.223-1.034,6.555,1.762,11.297c4.827,8.184,15.383,7.419,23.652,3.973c7.594-3.164,16.2-6.75,21.181-0.94
c4.687,5.468-1.083,17.706-4.182,24.281c-0.197,0.418-0.384,0.816-0.558,1.189c-1.354,2.901-1.134,6.694,0.603,10.406
c1.96,4.188,5.487,7.402,9.205,8.386c0.53,0.14,1.092,0.285,1.676,0.436c7.343,1.897,18.441,4.764,19.207,11.663
c0.454,4.086-0.84,6.338-2.337,8.947c-1.281,2.23-2.732,4.757-3.42,8.886c-1.453,8.717-11.494,15.505-11.613,15.586
c-8.848,6.858-9.738,13.37-10.151,23.279c-0.109,2.625-0.159,4.839-0.202,6.792c-0.123,5.546-0.191,8.601-1.473,11.215
c-4.941,10.08-14.01,8.562-18.368,7.834c-0.252-0.042-0.488-0.082-0.707-0.116c-10.08-1.592-10.724-10.409-11.406-19.745
c-0.577-7.901-1.175-16.071-7.905-19.688c-8.318-4.469-13.41-12.562-14.339-22.787c-0.5-5.503,3.412-10.873,7.554-16.559
c2.831-3.887,5.759-7.906,7.57-12.304c3.618-8.787-6.087-15.848-13.173-21.003c-1.919-1.396-3.732-2.715-5.043-3.89
c-2.428-2.177-5.436-2.806-8.62-3.471c-5.062-1.058-10.296-2.153-13.918-9.657c-6.633-13.739,4.284-24.666,6.54-26.717
c4.655-4.233,3.021-8.682,0.054-16.761l-0.396-1.079c-3.122-8.533-0.03-17.614-0.009-17.679c0.02-0.045,1.484-3.308,4.429-9.738
h-0.704c-2.864,6.257-4.292,9.44-4.319,9.502c-0.033,0.093-3.201,9.382,0.002,18.135l0.396,1.08
c2.964,8.072,4.452,12.123,0.116,16.066c-2.315,2.105-13.516,13.32-6.686,27.469c3.759,7.788,9.393,8.966,14.364,10.005
c3.098,0.648,6.024,1.259,8.324,3.321c1.335,1.197,3.161,2.525,5.093,3.931c7.3,5.311,16.384,11.921,12.958,20.242
c-1.782,4.327-4.686,8.314-7.496,12.171c-4.215,5.786-8.196,11.251-7.674,16.994c0.95,10.446,6.161,18.718,14.674,23.292
c6.421,3.45,7.005,11.442,7.57,19.171c0.671,9.174,1.364,18.66,11.945,20.33c0.217,0.034,0.452,0.074,0.702,0.115
c4.511,0.755,13.897,2.325,19.049-8.183c1.343-2.741,1.413-5.846,1.538-11.482c0.043-1.95,0.092-4.16,0.202-6.779
c0.405-9.725,1.274-16.112,9.885-22.787c0.423-0.282,10.373-7.007,11.871-16c0.669-4.015,2.09-6.489,3.344-8.672
c1.554-2.706,2.896-5.042,2.419-9.336C270.222,98.866,258.867,95.933,251.354,93.993z"/>
<path fill="rgba(0,0,0,0.16)" d="M327.261,31.211c-9.679,2.463-20.49,0.506-29.728-5.686c-6.31-4.228-5.529-9.117-3.762-12.474
c0.312-0.593,0.692-1.179,1.06-1.746c0.804-1.24,1.636-2.522,1.869-4.023c1.068-6.888-6.074-14.293-12.9-19.663h-1.038
c6.884,5.298,14.361,12.754,13.305,19.565c-0.212,1.366-0.97,2.535-1.773,3.773c-0.376,0.579-0.764,1.177-1.09,1.796
c-1.546,2.938-3.086,8.574,3.973,13.304c9.341,6.259,20.271,8.262,30.084,5.816V31.211z"/>
</g>
<g clip-path="url(#SVGID_3_)">
<path fill="rgba(0,0,0,0.16)" d="M19.691-12.381c2.49,9.172,3.482,18.854,1.034,22.215c-2.091,2.871-4.537,3.473-6.22,3.473
c-1.947,0-3.976-0.839-5.294-2.189C8.39,10.278,7.949,9.349,7.97,8.504c0.039-1.605,0.679-2.23,1.564-3.094
c1.084-1.058,2.433-2.374,2.994-6.009c0.32-2.075-0.321-4.128-1-6.301c-0.517-1.656-1.072-3.444-1.304-5.481H9.578
c0.233,2.116,0.805,3.962,1.339,5.671c0.685,2.192,1.276,4.085,0.978,6.013c-0.528,3.423-1.74,4.605-2.809,5.648
C8.206,5.811,7.375,6.623,7.33,8.488C7.305,9.507,7.811,10.6,8.753,11.565c1.456,1.492,3.606,2.382,5.752,2.382
c1.832,0,4.488-0.648,6.738-3.736c2.537-3.483,1.593-13.299-0.895-22.592H19.691z"/>
</g>
<g clip-path="url(#SVGID_3_)">
<path fill="rgba(0,0,0,0.16)" d="M113.72,333.661c0.65-2.709,0.77-5.54,0.886-8.328c0.267-6.407,0.52-12.458,6.883-16.71
c5.026-3.358,9.411-4.574,13.035-3.616c4.39,1.161,6.396,5.167,7.056,6.483c3.184,6.357,2.736,13.926,2.302,21.247
c-0.018,0.309-0.036,0.616-0.054,0.924h0.641c0.017-0.295,0.034-0.589,0.052-0.886c0.439-7.405,0.892-15.062-2.369-21.572
c-0.691-1.38-2.795-5.579-7.464-6.815c-3.808-1.007-8.369,0.238-13.555,3.703c-6.633,4.432-6.904,10.931-7.166,17.215
c-0.117,2.801-0.237,5.646-0.912,8.354H113.72z"/>
<path fill="rgba(0,0,0,0.16)" d="M124.425,333.661c-0.721-8.941-0.827-17.573,1.994-19.005c1.184-0.601,2.921,0.123,5.161,2.151
c2.86,2.588,3.184,8.903,2.79,16.855h0.64c0.397-8.108,0.041-14.577-3-17.329c-2.492-2.256-4.416-2.99-5.88-2.247
c-3.179,1.614-3.136,10.086-2.355,19.576H124.425z"/>
</g>
<g clip-path="url(#SVGID_3_)">
<path fill="rgba(0,0,0,0.16)" d="M202.127,333.661c-1.676-10.333,6.641-17.287,7.032-17.606c0.757-0.468,13.564-8.435,17.992-13.804
c0.485-0.588,0.96-1.2,1.462-1.848c4.05-5.22,8.639-11.137,19.239-4.152c3.16,2.083,7.963,3.858,13.049,5.738
c14.578,5.389,32.721,12.096,26.159,31.031c-0.005,0.014-0.09,0.243-0.208,0.641h0.669c0.081-0.261,0.136-0.41,0.141-0.422
c6.77-19.536-11.699-26.364-26.539-31.85c-5.05-1.867-9.82-3.63-12.918-5.673c-11.094-7.311-16.086-0.877-20.097,4.294
c-0.5,0.644-0.972,1.252-1.451,1.833c-4.399,5.334-17.718,13.595-17.852,13.678l-0.031,0.021
c-0.092,0.073-8.994,7.273-7.297,18.118H202.127z"/>
<path fill="rgba(0,0,0,0.16)" d="M72.786,333.661c0.741-0.755,1.445-1.569,2.101-2.453c5.678-7.658,7.359-19.279,4.497-31.085
c-3.774-15.571,3.502-18.562,14.517-23.091c2.826-1.162,5.749-2.363,8.834-3.906c7.933-3.967,13.965-5.041,18.439-3.284
c3.639,1.428,6.411,4.801,8.477,10.309c2.317,6.179,10.408,7.133,18.232,8.055c7.081,0.835,14.403,1.698,17.313,6.4
c3.682,5.947-0.582,12.187-4.808,16.375c-3.62,3.588-5.639,7.047-6.17,10.572c-0.563,3.733-1.002,8.468-0.428,12.108h0.645
c-0.586-3.555-0.146-8.286,0.416-12.012c0.51-3.384,2.469-6.725,5.988-10.213c4.39-4.351,8.804-10.861,4.901-17.166
c-3.073-4.964-10.551-5.846-17.783-6.699c-7.985-0.942-15.528-1.831-17.708-7.644c-2.133-5.688-5.025-9.182-8.842-10.68
c-4.653-1.827-10.854-0.745-18.959,3.307c-3.064,1.532-5.976,2.729-8.792,3.887c-10.913,4.487-18.799,7.729-14.895,23.833
c2.818,11.624,1.177,23.045-4.389,30.553c-0.77,1.038-1.605,1.981-2.496,2.834H72.786z"/>
</g>
<g clip-path="url(#SVGID_3_)">
<path fill="rgba(0,0,0,0.16)" d="M91.946,329.566c-1.629,0-2.865-0.482-3.675-1.431c-1.011-1.187-1.317-3.08-0.908-5.625
c1.7-10.578-0.68-15.481-2.417-19.062c-1.239-2.553-2.218-4.569-1.415-7.532c1.802-6.655,7.089-11.573,15.712-14.618
c7.977-2.817,15.738-2.898,16.597-2.898c8.137,0,15.585,6.443,16.956,14.667c1.135,6.808-6.408,8.068-13.702,9.286
c-1.278,0.213-2.599,0.434-3.831,0.68c-4.005,0.801-5.258,5.654-6.586,10.791c-1.231,4.766-2.505,9.693-6.11,11.888
C98.544,328.162,94.673,329.566,91.946,329.566z M115.84,279.04c-0.847,0-8.507,0.08-16.384,2.862
c-8.413,2.971-13.563,7.742-15.307,14.182c-0.74,2.731,0.147,4.557,1.373,7.085c1.775,3.657,4.206,8.665,2.474,19.442
c-0.378,2.353-0.121,4.071,0.763,5.109c0.682,0.8,1.754,1.206,3.187,1.206c2.613,0,6.362-1.37,10.287-3.759
c3.384-2.06,4.624-6.86,5.824-11.502c1.379-5.337,2.682-10.379,7.08-11.259c1.242-0.248,2.568-0.47,3.851-0.684
c6.984-1.166,14.206-2.372,13.176-8.55C130.844,285.248,123.673,279.04,115.84,279.04z"/>
</g>
<g clip-path="url(#SVGID_3_)">
<path fill="rgba(0,0,0,0.16)" d="M101.822,303.432c-3.855,0-7.642-1.988-9.005-4.727c-0.752-1.512-1.158-3.964,1.181-7.058
c0.081-0.096,7.076-8.161,17.623-8.161c0.399,0,0.803,0.012,1.202,0.034c5.812,0.332,9.794,1.693,11.835,4.043
c1.064,1.225,1.556,2.713,1.423,4.303c-0.156,1.867-3.149,2.682-6.937,3.712c-3.986,1.084-8.946,2.433-11.392,5.424
C106.47,302.569,104.364,303.432,101.822,303.432z M111.621,284.126c-10.245,0-17.057,7.842-17.125,7.921
c-1.683,2.228-2.07,4.436-1.106,6.372c1.261,2.533,4.807,4.372,8.432,4.372c2.347,0,4.277-0.779,5.435-2.194
c2.576-3.149,7.645-4.528,11.719-5.636c3.407-0.927,6.349-1.727,6.467-3.148c0.12-1.435-0.307-2.723-1.268-3.831
c-1.896-2.183-5.834-3.506-11.388-3.823C112.399,284.138,112.007,284.126,111.621,284.126z"/>
</g>
<g clip-path="url(#SVGID_3_)">
<path fill="rgba(0,0,0,0.16)" d="M109.891-12.381c-0.737,1.8-1.279,3.898-1.834,6.046c-1.199,4.642-2.44,9.442-5.824,11.502
c-3.925,2.389-7.674,3.759-10.287,3.759c-1.433,0-2.505-0.406-3.187-1.206c-0.884-1.038-1.141-2.757-0.763-5.109
c1.134-7.058,0.483-11.641-0.6-14.991h-0.678c1.097,3.298,1.78,7.829,0.645,14.89c-0.409,2.546-0.104,4.438,0.908,5.625
c0.809,0.95,2.046,1.431,3.675,1.431c2.727,0,6.598-1.404,10.62-3.853c3.606-2.195,4.879-7.123,6.11-11.888
c0.575-2.224,1.136-4.394,1.912-6.206H109.891z"/>
</g>
</g>
</g>
<path fill="rgba(0,0,0,0.16)" d="M317.976-13.234c2.261,6.309,3.55,13.21,1.027,17.703c-1.388,2.473-1.51,5.544-1.627,8.515
c-0.167,4.218-0.311,7.861-4.049,8.664c-1.48,0.318-2.576,0.106-3.256-0.629c-1.849-1.999-0.329-7.194-0.307-7.272
c2.421-11.501-1.734-20.314-6.276-26.122h-0.817c4.569,5.684,8.895,14.46,6.473,25.965c-0.068,0.227-1.639,5.597,0.456,7.864
c0.845,0.914,2.144,1.19,3.861,0.821c4.224-0.908,4.384-4.967,4.554-9.264c0.114-2.895,0.233-5.888,1.546-8.227
c2.585-4.604,1.34-11.609-0.905-18.017H317.976z"/>
<path fill="rgba(0,0,0,0.16)" d="M281.346,255.027c2.707-1.955,8.147-2.432,12.652-1.111c3.522,1.034,6.023,3.032,7.042,5.625
c1.632,4.153,4.474,6.302,6.571,7.374c1.938,0.99,4.12,1.011,6.372,0.948c4.252-0.124,9.013,0.108,13.278,2.355V269.5
c-4.309-2.172-9.054-2.399-13.297-2.277c-2.165,0.065-4.259,0.044-6.062-0.877c-1.998-1.021-4.708-3.072-6.266-7.038
c-1.093-2.782-3.742-4.915-7.458-6.006c-4.677-1.372-10.354-0.854-13.207,1.206c-2.688,1.941-2.145,3.565-1.393,5.813
c0.647,1.934,1.453,4.342,0.748,8.099c-1.821,9.711,3.68,15.491,17.836,18.74c6.776,1.555,12.792,6.346,16.939,13.49
c1.131,1.948,2.106,4.009,2.899,6.115h-0.025c0.703,1.962,1.312,3.981,1.742,5.968c0.004,0.018,0.008,0.037,0.012,0.055
c0.021,0.098,0.038,0.195,0.058,0.293c0.456,2.414,0.631,4.797,0.498,7.058c-0.168,1.589-0.568,3.059-1.282,4.33
c-1.388,2.472-1.51,5.544-1.627,8.515c-0.167,4.218-0.311,7.861-4.049,8.664c-1.48,0.319-2.576,0.106-3.256-0.629
c-1.849-1.999-0.329-7.194-0.307-7.272c0.011-0.051,0.016-0.1,0.027-0.152h0.01c0.102-0.492,0.17-0.969,0.249-1.451
c0.031-0.193,0.072-0.39,0.1-0.581c0.079-0.543,0.132-1.075,0.182-1.605c0.016-0.172,0.038-0.346,0.051-0.516
c0.04-0.515,0.06-1.02,0.074-1.522c0.005-0.186,0.013-0.373,0.014-0.557c0.004-0.471-0.004-0.934-0.021-1.394
c-0.008-0.222-0.018-0.443-0.031-0.663c-0.025-0.408-0.055-0.813-0.096-1.212c-0.029-0.292-0.065-0.58-0.102-0.868
c-0.041-0.313-0.082-0.627-0.133-0.935c-0.072-0.442-0.157-0.875-0.247-1.305c-0.03-0.141-0.055-0.286-0.087-0.426
c-1.18-5.263-3.655-9.599-6.266-12.938h-0.09c-0.526-0.668-1.055-1.307-1.579-1.896c-5.483-6.161-11.692-9.343-11.752-9.373
c-20.37-10.513-18.25-23.23-17.111-30.063c0.386-2.314-0.084-4.187-1.396-5.567c-2.955-3.108-9.591-3.066-14.636-2.483
c-8.289,0.953-11.152-2.75-16.35-9.478c-5.959-7.712-16.64-3.969-22.476-1.051c-7.048,3.524-11.882,1.436-20.514-2.88
c-9.504-4.752-18.842-0.269-22.161,4.257c-0.461,0.629-0.561,1.254-0.296,1.857c1.395,3.184,13.311,4.777,24.371,6.02
c1.011,0.114,1.925,0.216,2.705,0.31c7.897,0.948,20.219,5.919,21.802,15.733c0.855,5.299-4.7,11.719-9.039,14.317
c-2.143,1.284-3.889,1.627-4.787,0.941c-0.896-0.683-0.989-2.406-0.27-4.983c1.468-5.259,1.026-9.776-1.312-13.424
c-3.638-5.675-10.545-7.33-13.346-7.778c-1.551-0.248-3.549-0.434-5.862-0.649c-9.466-0.879-23.771-2.208-27.824-10.062
c-3.367-6.524,2.067-9.589,6.035-11.827c1.944-1.096,3.48-1.962,3.598-3.031c0.033-0.298-0.062-0.575-0.275-0.801
c-1.136-1.205-5.648-1.061-12.943-0.683c-3.852,0.199-7.835,0.406-10.431,0.17c-3.769-0.342-5.545,1.188-5.951,2.735
c-0.487,1.854,0.719,4.489,4.511,6.196c6.502,2.926,9.988,7.696,9.097,12.449c-0.932,4.971,3.33,9.16,11.124,10.931
c1.695,0.385,4.127,0.478,6.943,0.584c9.197,0.349,21.793,0.828,26.112,11.385c5.546,13.557-5.097,28.045-5.495,28.578
c-6.799,7.073-9.259,15.669-7.343,25.601h0.654c-1.916-9.777,0.484-18.23,7.163-25.171l0.024-0.028
c0.114-0.15,11.352-15.136,5.589-29.223c-4.475-10.938-17.838-11.446-26.68-11.782c-2.784-0.106-5.188-0.197-6.825-0.569
c-7.423-1.687-11.499-5.591-10.636-10.189c0.948-5.058-2.678-10.097-9.463-13.151c-3.432-1.544-4.559-3.907-4.154-5.449
c0.433-1.65,2.453-2.516,5.274-2.26c2.642,0.24,6.648,0.032,10.523-0.169c5.357-0.278,11.429-0.593,12.444,0.483
c0.085,0.09,0.117,0.18,0.105,0.292c-0.083,0.743-1.634,1.618-3.277,2.544c-3.958,2.232-9.94,5.605-6.29,12.678
c4.215,8.166,18.729,9.514,28.334,10.406c2.302,0.214,4.29,0.398,5.82,0.643c2.716,0.435,9.41,2.034,12.908,7.492
c2.236,3.488,2.651,7.83,1.234,12.906c-0.807,2.89-0.639,4.796,0.498,5.663c1.135,0.866,3.089,0.546,5.504-0.9
c4.495-2.691,10.242-9.39,9.342-14.968c-1.639-10.163-14.269-15.296-22.358-16.267c-0.781-0.094-1.697-0.197-2.71-0.311
c-7.861-0.883-22.492-2.528-23.857-5.641c-0.168-0.385-0.094-0.784,0.227-1.222c3.19-4.35,12.185-8.65,21.359-4.063
c5.698,2.849,9.777,4.747,13.926,4.746c2.273,0,4.568-0.57,7.161-1.866c5.66-2.83,16.004-6.48,21.684,0.869
c5.341,6.912,8.283,10.72,16.93,9.722c4.902-0.565,11.326-0.628,14.099,2.289c1.166,1.226,1.579,2.915,1.228,5.021
c-1.082,6.495-3.335,20.01,17.451,30.738c0.061,0.031,6.177,3.168,11.579,9.244c3.079,3.463,6.35,8.328,7.767,14.515
c0.029,0.129,0.056,0.26,0.084,0.39c0.092,0.428,0.171,0.864,0.244,1.304c0.042,0.257,0.082,0.516,0.117,0.777
c0.045,0.324,0.081,0.654,0.115,0.985c0.035,0.35,0.069,0.702,0.091,1.059c0.017,0.254,0.024,0.514,0.034,0.772
c0.016,0.423,0.03,0.846,0.027,1.279c-0.001,0.202-0.012,0.409-0.017,0.614c-0.013,0.485-0.028,0.971-0.065,1.468
c-0.011,0.154-0.033,0.312-0.047,0.468c-0.049,0.547-0.103,1.096-0.183,1.657c-0.007,0.05-0.019,0.101-0.026,0.151
c-0.097,0.652-0.21,1.311-0.351,1.982c-0.068,0.228-1.639,5.597,0.456,7.864c0.845,0.914,2.144,1.19,3.861,0.821
c4.224-0.908,4.384-4.967,4.554-9.264c0.114-2.878,0.234-5.852,1.526-8.185l0.566,0.171c0.468-1.552,0.728-3.219,0.82-4.953
c0.189-2.046,0.004-4.278-0.428-6.566c-0.774-4.473-2.468-9.055-4.844-13.148c-4.237-7.299-10.399-12.197-17.35-13.792
c-13.927-3.196-19.116-8.579-17.35-17.998c0.735-3.921-0.135-6.521-0.77-8.42C279.446,257.91,279.039,256.693,281.346,255.027z"/>
<path fill="rgba(0,0,0,0.16)" d="M-1.929-13.234c2.261,6.309,3.55,13.21,1.027,17.703c-1.388,2.473-1.51,5.544-1.627,8.515
c-0.167,4.218-0.311,7.861-4.049,8.664c-1.48,0.318-2.576,0.106-3.256-0.629c-1.849-1.999-0.329-7.194-0.307-7.272
c2.421-11.501-1.734-20.314-6.276-26.122h-0.817c4.569,5.684,8.895,14.46,6.473,25.965c-0.068,0.227-1.639,5.597,0.456,7.864
c0.845,0.914,2.144,1.19,3.861,0.821c4.224-0.908,4.384-4.967,4.554-9.264c0.114-2.895,0.233-5.888,1.546-8.227
c2.585-4.604,1.34-11.609-0.905-18.017H-1.929z"/>
<path fill="rgba(0,0,0,0.16)" d="M-1.929,306.766c2.261,6.309,3.55,13.21,1.027,17.703c-1.388,2.473-1.51,5.544-1.627,8.515
c-0.167,4.218-0.311,7.861-4.049,8.664c-1.48,0.318-2.576,0.106-3.256-0.629c-1.849-1.999-0.329-7.194-0.307-7.272
c2.421-11.501-1.734-20.314-6.276-26.122h-0.817c4.569,5.684,8.895,14.46,6.473,25.965c-0.068,0.228-1.639,5.597,0.456,7.864
c0.845,0.914,2.144,1.19,3.861,0.821c4.224-0.908,4.384-4.967,4.554-9.264c0.114-2.895,0.233-5.888,1.546-8.227
c2.585-4.604,1.34-11.609-0.905-18.017H-1.929z"/>
</svg>
